<?xml version="1.0" standalone="no"?>
<!DOCTYPE svg PUBLIC "-//W3C//DTD SVG 1.1//EN" "http://www.w3.org/Graphics/SVG/1.1/DTD/svg11.dtd" >
<svg xmlns="http://www.w3.org/2000/svg">
<metadata></metadata>
<defs>
<font id="vp_sansregular" horiz-adv-x="1263" >
<font-face units-per-em="2048" ascent="1536" descent="-512" />
<missing-glyph horiz-adv-x="491" />
<glyph unicode="&#xfb01;" horiz-adv-x="1009" d="M113 0v1073q0 125 61.5 214t159 130t219.5 41q192 0 354 -98l-80 -160q-119 68 -262 68q-106 0 -171.5 -48.5t-65.5 -146.5v-63h524v-1010h-215v829h-309v-829h-215z" />
<glyph unicode="&#xfb02;" horiz-adv-x="1095" d="M113 0v1075q0 189 99 286t286 97q139 0 231 -57l-33 -180q-85 53 -186 53q-85 0 -133.5 -49.5t-48.5 -149.5v-65h303v-164h-303v-846h-215zM770 0v1434h215v-1434h-215z" />
<glyph horiz-adv-x="0" />
<glyph horiz-adv-x="682" />
<glyph unicode=" "  horiz-adv-x="491" />
<glyph unicode="&#x09;" horiz-adv-x="491" />
<glyph unicode="&#xa0;" horiz-adv-x="491" />
<glyph unicode="!" horiz-adv-x="530" d="M133 106q0 61 39.5 95.5t93.5 34.5q53 0 92 -34.5t39 -95.5t-39 -96t-92 -35t-93 35t-40 96zM152 354v1080h229v-1080h-229z" />
<glyph unicode="&#x22;" horiz-adv-x="759" d="M113 891v543h194v-543h-194zM453 891v543h194v-543h-194z" />
<glyph unicode="#" horiz-adv-x="1435" d="M92 295v201h209l109 424h-172v198h217l77 316h232l-78 -316h268l80 316h230l-78 -316h157v-198h-206l-109 -424h170v-201h-217l-72 -295h-231l72 295h-269l-73 -295h-230l72 295h-158zM514 485h295l113 449h-295z" />
<glyph unicode="$" horiz-adv-x="1341" d="M68 319l194 101q33 -78 101.5 -131.5t152 -77t178.5 -23.5q74 0 135.5 10.5t111.5 33.5t78 62.5t28 92.5q0 49 -30.5 85.5t-83 59.5t-120.5 41.5t-143 36t-150.5 38t-143.5 52.5t-120.5 74.5t-83.5 109.5t-31 152q-1 95 35.5 172t101.5 126.5t143.5 79t168.5 40.5v232 h219v-236q146 -21 252.5 -82.5t161.5 -148.5l-150 -146q-157 174 -391 174q-135 0 -223 -53.5t-88 -153.5q0 -48 31 -84t83.5 -59.5t120 -42.5t142.5 -37t150.5 -39t143 -53.5t120 -74.5t83.5 -108t31 -149q0 -93 -37 -167.5t-102.5 -123.5t-147.5 -79t-180 -41v-222h-219 v222q-184 21 -322.5 108.5t-199.5 228.5z" />
<glyph unicode="%" horiz-adv-x="1849" d="M76 1057q0 76 20 146t58.5 128t102.5 92.5t144 34.5q65 0 119.5 -23t92 -61.5t64 -90t38.5 -109t12 -117.5t-12 -117t-38.5 -109t-64 -91t-92 -62t-119.5 -23q-80 0 -144 35t-102.5 93t-58.5 128.5t-20 145.5zM250 1055q0 -101 38 -166.5t113 -65.5t113.5 65.5 t38.5 166.5q0 105 -37.5 171t-114.5 66q-76 0 -113.5 -66t-37.5 -171zM434 -129l793 1626h170l-793 -1626h-170zM1124 377q0 60 12 117.5t38.5 109t64 90t92 61.5t119.5 23t119.5 -23t92 -61.5t64 -90t38.5 -109t12 -117.5t-12 -117t-38.5 -109t-64 -91t-92 -62t-119.5 -23 t-119.5 23t-92 62t-64 91t-38.5 109t-12 117zM1298 375q0 -101 38.5 -166.5t113.5 -65.5t113.5 65.5t38.5 166.5q0 105 -37.5 171t-114.5 66q-76 0 -114 -66t-38 -171z" />
<glyph unicode="&#x26;" horiz-adv-x="1413" d="M49 385q0 130 72.5 227.5t197.5 153.5q-78 85 -118.5 164t-40.5 170q0 161 108 260.5t287 99.5q102 0 181 -28.5t126 -78t70.5 -110.5t23.5 -131q0 -131 -82.5 -224t-234.5 -167l270 -268q33 95 29 229h184q5 -100 -14 -201.5t-57 -179.5l317 -301h-272l-158 150 q-68 -81 -169.5 -129t-223.5 -48q-125 0 -222 32t-156 89t-88.5 130.5t-29.5 160.5zM268 389q0 -75 42.5 -128.5t104 -77t132.5 -23.5q78 0 144 36.5t102 90.5l-347 344q-86 -46 -132 -102.5t-46 -139.5zM371 1108q0 -20 3.5 -40t7 -34.5t14.5 -34.5t16 -29.5t21.5 -31 t22 -28t26.5 -30.5t26 -30q128 56 185 118.5t57 141.5q0 82 -53.5 128t-143.5 46q-25 0 -53 -8.5t-58.5 -27t-50.5 -55t-20 -85.5z" />
<glyph unicode="'" horiz-adv-x="419" d="M113 891v543h194v-543h-194z" />
<glyph unicode="(" horiz-adv-x="669" d="M82 725q0 168 34 330t93 296t131 243.5t156 195.5l159 -109q-356 -408 -356 -956t356 -956l-159 -109q-84 86 -156 196t-131 244t-93 296t-34 329z" />
<glyph unicode=")" horiz-adv-x="669" d="M16 -231q357 413 357 956t-357 956l158 109q84 -86 156 -195.5t131 -243.5t93 -296t34 -330q0 -167 -34 -329t-93 -296t-131 -244t-156 -196z" />
<glyph unicode="*" horiz-adv-x="604" d="M51 1208l39 121l156 -59l-13 164h132l-13 -164l162 59l39 -121l-170 -37l113 -133l-105 -75l-92 145l-94 -145l-107 75l115 131z" />
<glyph unicode="+" horiz-adv-x="1161" d="M102 592v203h377v376h203v-376h377v-203h-377v-377h-203v377h-377z" />
<glyph unicode="," horiz-adv-x="509" d="M51 -385h213l113 565h-213z" />
<glyph unicode="-" horiz-adv-x="911" d="M82 565v211h747v-211h-747z" />
<glyph unicode="." horiz-adv-x="468" d="M61 106q0 61 40 95.5t94 34.5q53 0 92 -34.5t39 -95.5t-39 -96t-92 -35q-54 0 -94 35t-40 96z" />
<glyph unicode="/" horiz-adv-x="923" d="M0 -168l702 1735h222l-705 -1735h-219z" />
<glyph unicode="0" horiz-adv-x="1318" d="M70 717q0 116 21.5 222.5t68 202t114.5 165t167 110.5t218 41q120 0 219.5 -41t167.5 -111t115 -165.5t68.5 -202.5t21.5 -223q0 -115 -21.5 -221t-68.5 -201t-115 -165.5t-167.5 -111.5t-219.5 -41q-119 0 -217.5 41t-166.5 111.5t-115 165.5t-68.5 202t-21.5 222z M297 713q0 -106 19.5 -196.5t60.5 -166t113 -119t169 -43.5t170 43.5t114.5 119t61 166t19.5 196.5q0 108 -19.5 200t-61 169t-114.5 121t-170 44t-169 -44t-113 -120.5t-60.5 -169t-19.5 -200.5z" />
<glyph unicode="1" horiz-adv-x="641" d="M51 1251v183h455v-1434h-232v1251h-223z" />
<glyph unicode="2" horiz-adv-x="1220" d="M80 0v209q0 77 16.5 142t40.5 111.5t67 88t79 66.5t95.5 52t97 40.5t101.5 34.5l75 25.5t67 25.5t63.5 30.5t50 35t42.5 43.5t24 51.5t10 64.5q0 103 -79.5 164t-211.5 61q-221 0 -348 -186l-168 133q27 43 71.5 86t108.5 85t151.5 68.5t182.5 26.5q235 0 380 -117.5 t145 -320.5q0 -88 -28.5 -158.5t-76 -116.5t-110 -82t-131 -61t-137 -48t-131 -48.5t-110 -56.5t-76 -78.5t-28.5 -108.5v-47h809v-215h-1042z" />
<glyph unicode="3" horiz-adv-x="1298" d="M41 322l197 100q52 -116 164.5 -175t250.5 -59q162 0 259.5 62.5t97.5 169.5q0 92 -88.5 155.5t-239.5 63.5h-252v195h229q152 0 235 55.5t83 146.5t-80 151t-240 60q-254 0 -376 -196l-166 129q31 50 77.5 96t113 88.5t159 68t197.5 25.5q248 0 395 -111t147 -305 q0 -98 -58 -179.5t-153 -121.5q104 -32 174 -118t70 -199q0 -90 -32.5 -165t-87.5 -127t-130 -88t-159 -52.5t-175 -16.5q-218 0 -380.5 97.5t-231.5 249.5z" />
<glyph unicode="4" horiz-adv-x="1251" d="M20 285v207l637 942h279l-631 -934h496v432h231v-432h178v-215h-178v-285h-231v285h-781z" />
<glyph unicode="5" horiz-adv-x="1241" d="M41 283l174 125q60 -104 169.5 -162t242.5 -58q151 0 237 77.5t86 191.5q0 139 -88.5 211.5t-230.5 72.5q-153 0 -295 -102l-191 33l68 762h889v-213h-692l-35 -357q164 78 301 78q141 0 253.5 -53.5t181.5 -164t69 -261.5q0 -149 -73.5 -261t-198.5 -169.5t-281 -57.5 q-213 0 -361.5 86.5t-224.5 221.5z" />
<glyph unicode="6" horiz-adv-x="1316" d="M51 707q0 119 26.5 227.5t84.5 204.5t143 166.5t209 111.5t274 41q206 0 361 -84l-119 -176q-118 49 -252 49q-108 0 -192.5 -27t-138 -71.5t-89.5 -107t-51 -128t-18 -141.5q148 189 428 189q158 0 280.5 -55t195.5 -167t73 -266q0 -219 -159 -358.5t-419 -139.5 q-166 0 -290.5 55t-199 155t-111 230.5t-36.5 291.5zM328 475q0 -134 98 -210.5t262 -76.5q162 0 260.5 76t98.5 211q0 137 -99 211t-262 74q-161 0 -259.5 -77t-98.5 -208z" />
<glyph unicode="7" horiz-adv-x="1193" d="M61 1219v215h1113v-203l-744 -1231h-270l741 1219h-840z" />
<glyph unicode="8" horiz-adv-x="1308" d="M72 410q0 118 69.5 207.5t173.5 121.5q-95 42 -153 126.5t-58 183.5q0 193 150 301t401 108q250 0 399.5 -108t149.5 -301q0 -99 -58 -183.5t-153 -126.5q105 -32 174.5 -121.5t69.5 -207.5q0 -90 -32 -163.5t-87 -123.5t-130 -83.5t-158.5 -49t-174.5 -15.5t-174.5 15.5 t-158.5 49t-130 83.5t-87.5 123.5t-32.5 163.5zM313 414q0 -102 88.5 -165t253.5 -63t252.5 63t87.5 165q0 98 -89.5 163.5t-250.5 65.5q-162 0 -252 -65t-90 -164zM336 1042q0 -91 83.5 -149.5t235.5 -58.5q151 0 235.5 58.5t84.5 149.5t-84.5 149t-235.5 58 q-152 0 -235.5 -58t-83.5 -149z" />
<glyph unicode="9" horiz-adv-x="1316" d="M53 961q0 220 158.5 358.5t417.5 138.5q167 0 291.5 -54.5t199 -154t110.5 -229.5t36 -291q0 -120 -26.5 -229t-84.5 -205.5t-142.5 -167t-208.5 -111.5t-274 -41q-207 0 -362 84l121 179q110 -50 250 -50q108 0 192.5 27t138 71.5t89.5 107.5t51 128.5t18 141.5 q-65 -85 -172 -138t-256 -53q-156 0 -278.5 55.5t-195.5 167.5t-73 265zM270 961q0 -137 99 -212t262 -75q162 0 261 77t99 207q0 135 -97.5 212t-262.5 77q-162 0 -261.5 -76t-99.5 -210z" />
<glyph unicode=":" horiz-adv-x="468" d="M61 106q0 61 40 95.5t94 34.5q53 0 92 -34.5t39 -95.5t-39 -96t-92 -35q-54 0 -94 35t-40 96zM61 905q0 61 40 95t94 34q53 0 92 -34t39 -95t-39 -96t-92 -35q-54 0 -94 35t-40 96z" />
<glyph unicode=";" horiz-adv-x="542" d="M51 -385h213l113 565h-213zM147 905q0 61 39 95t93 34q53 0 92 -34t39 -95t-39 -96t-92 -35t-92.5 35t-39.5 96z" />
<glyph unicode="&#x3c;" horiz-adv-x="1161" d="M102 610v164l957 373v-209l-694 -246l694 -248v-206z" />
<glyph unicode="=" horiz-adv-x="1161" d="M102 346v203h957v-203h-957zM102 838v202h957v-202h-957z" />
<glyph unicode="&#x3e;" horiz-adv-x="1161" d="M102 238v206l697 248l-697 246v209l957 -373v-164z" />
<glyph unicode="?" horiz-adv-x="1181" d="M72 1245q75 90 204.5 151.5t280.5 61.5q107 0 198.5 -23.5t165.5 -70.5t116 -125.5t42 -181.5q0 -88 -25 -154t-65 -104.5t-88.5 -68.5t-97 -54t-88.5 -51t-65 -70t-25 -102v-93h-232v91q0 88 25 153t64.5 102t87.5 65t95.5 50t87 47.5t64.5 67.5t25 100t-27 100.5 t-72 65t-93 33t-99 10.5q-203 0 -358 -172zM373 106q0 61 39 95.5t92 34.5t92 -34.5t39 -95.5t-39 -96t-92 -35t-92 35t-39 96z" />
<glyph unicode="@" horiz-adv-x="1607" d="M82 348q0 334 198 535.5t525 201.5q161 0 295.5 -51t228 -142t145.5 -219t52 -280q0 -221 -91.5 -344t-238.5 -123q-152 0 -205 121q-57 -55 -111.5 -84t-123.5 -29q-45 0 -87.5 12t-85.5 42.5t-75 77t-52 121t-20 169.5t23.5 170t60.5 120.5t85.5 75t94 41t91.5 11.5 q97 0 173 -26t160 -76v-457q0 -127 95 -127q79 0 118 85.5t39 219.5q0 249 -157.5 402t-413.5 153q-260 0 -419 -162t-159 -438q0 -190 80 -330t218.5 -212t318.5 -72q236 0 424 96l47 -129q-214 -107 -477 -107q-217 0 -387 87.5t-269.5 260t-99.5 406.5zM618 356 q0 -129 50 -196.5t110 -67.5q94 0 170 105v381q-71 38 -153 38q-29 0 -58 -13.5t-57 -41.5t-45 -81t-17 -124z" />
<glyph unicode="A" horiz-adv-x="1542" d="M37 0l631 1434h227l612 -1434h-254l-120 291h-730l-122 -291h-244zM494 506h548l-274 653z" />
<glyph unicode="B" horiz-adv-x="1327" d="M135 0v1434h615q207 0 335.5 -109.5t128.5 -284.5q0 -99 -52 -179t-148 -122q113 -35 177 -124t64 -214q0 -86 -26.5 -154t-72.5 -114t-111.5 -76t-140.5 -43.5t-163 -13.5h-606zM369 217h372q283 0 283 203q0 107 -80.5 162t-218.5 55h-356v-420zM369 842h354 q254 0 254 184q0 97 -68.5 147t-177.5 50h-362v-381z" />
<glyph unicode="C" horiz-adv-x="1421" d="M76 709q0 115 28.5 222.5t89.5 203.5t148 167.5t212.5 113.5t274.5 42t285 -53.5t242 -159.5l-154 -143q-73 71 -171.5 108t-201.5 37q-106 0 -194.5 -30.5t-149 -82t-102 -121t-61 -146t-19.5 -158.5q0 -80 19 -153t60.5 -138.5t101.5 -114t149 -76.5t196 -28 q103 0 205.5 40t175.5 113l158 -164q-101 -100 -244 -156.5t-295 -56.5q-151 0 -277 40.5t-213 110t-147 163.5t-88 199.5t-28 220.5z" />
<glyph unicode="D" horiz-adv-x="1474" d="M135 0v1434h545q143 0 262 -38.5t202 -104.5t141 -156t85.5 -192t28.5 -212v-9q-1 -108 -25 -210q-26 -106 -82.5 -199.5t-139.5 -162.5t-204.5 -109.5t-267.5 -40.5h-545zM369 223h311q103 0 187.5 29t141 77.5t94.5 114.5t54 138q14 64 14 132v17q-2 94 -32 178 t-87 153.5t-153 110.5t-219 41h-311v-991z" />
<glyph unicode="E" horiz-adv-x="1243" d="M135 0v1434h981v-215h-749v-394h708v-213h-708v-395h763v-217h-995z" />
<glyph unicode="F" horiz-adv-x="1150" d="M135 -2v1436h944v-220h-710v-430h671v-217h-671v-569h-234z" />
<glyph unicode="G" horiz-adv-x="1527" d="M76 702q0 125 31 237.5t93.5 207.5t151.5 164t211.5 108t265.5 39q149 0 287 -58t234 -159l-148 -149q-67 70 -168 112.5t-205 42.5q-163 0 -284 -73t-181.5 -195.5t-60.5 -276.5q0 -104 32.5 -195t95 -163t165 -114t233.5 -42q202 0 351 121v293h-400v209h613v-600 q-99 -106 -242.5 -171t-321.5 -65q-185 0 -331.5 59.5t-237 161.5t-137.5 231t-47 275z" />
<glyph unicode="H" horiz-adv-x="1499" d="M135 0v1434h234v-617h764v617h231v-1434h-231v604h-764v-604h-234z" />
<glyph unicode="I" horiz-adv-x="503" d="M135 0v1434h234v-1434h-234z" />
<glyph unicode="J" horiz-adv-x="1333" d="M51 588h234q0 -184 84.5 -288.5t255.5 -104.5q174 0 258 108.5t84 296.5v621h-459v213h690v-834q0 -187 -62 -325.5t-192.5 -219t-318.5 -80.5q-267 0 -420.5 163.5t-153.5 449.5z" />
<glyph unicode="K" horiz-adv-x="1337" d="M135 0v1434h234v-660l573 660h295l-553 -613l619 -821h-297l-482 643l-155 -174v-469h-234z" />
<glyph unicode="L" horiz-adv-x="1163" d="M135 0v1434h234v-1219h723v-215h-957z" />
<glyph unicode="M" horiz-adv-x="1732" d="M135 0v1434h258l473 -750l473 750h258v-1434h-233v1075l-412 -655h-182l-401 657v-1077h-234z" />
<glyph unicode="N" horiz-adv-x="1445" d="M135 0v1434h211l731 -1008v1008h234v-1434h-195l-747 1032v-1032h-234z" />
<glyph unicode="O" horiz-adv-x="1617" d="M76 717q0 116 27.5 223t87 201.5t144 165t206.5 111t268 40.5t268 -41t207 -111.5t144.5 -165.5t87.5 -202t28 -223q0 -144 -45.5 -274.5t-133.5 -235.5t-231.5 -167.5t-324.5 -62.5q-145 0 -267 41t-207 111.5t-144 165.5t-87 202t-28 222zM303 713q0 -83 18.5 -158.5 t58 -143t98 -116.5t143.5 -78t188 -29q104 0 189.5 29t143.5 78t98 116.5t58.5 143t18.5 158.5q0 84 -18.5 160.5t-58.5 145t-98 118.5t-143.5 79t-189.5 29t-189 -29t-143 -78.5t-98 -118t-58 -145t-18 -161.5z" />
<glyph unicode="P" horiz-adv-x="1296" d="M121 0v1434h614q124 0 223.5 -42.5t160.5 -113t93.5 -158t32.5 -182.5q0 -96 -32.5 -183.5t-93.5 -158.5t-160.5 -113.5t-223.5 -42.5h-381v-440h-233zM354 653h381q133 0 208 84t75 197q0 114 -75 197t-208 83h-381v-561z" />
<glyph unicode="Q" horiz-adv-x="1617" d="M76 717q0 116 27.5 223t87 201.5t144 165t206.5 111t268 40.5t268 -41t207 -111.5t144.5 -165.5t87.5 -202t28 -223q0 -199 -85.5 -370t-250.5 -269l197 -365l-180 -96l-205 385q-98 -25 -211 -25q-145 0 -267 41t-207 111.5t-144 165.5t-87 202t-28 222zM303 713 q0 -83 18.5 -158.5t58 -143t98 -116.5t143.5 -78t188 -29q57 0 106 9l-186 348l178 94l199 -371q105 69 158 187t53 258q0 84 -18.5 160.5t-58.5 145t-98 118.5t-143.5 79t-189.5 29t-189 -29t-143 -78.5t-98 -118t-58 -145t-18 -161.5z" />
<glyph unicode="R" horiz-adv-x="1382" d="M123 0v1434h670q121 -1 218 -39.5t158.5 -104t94 -148.5t32.5 -175v-7q0 -77 -20 -145q-22 -71 -66 -133t-121 -105t-180 -59l453 -518h-305l-414 496h-289v-496h-231zM354 705h434q135 0 205 74t70 184q0 67 -27.5 123t-90.5 94.5t-152 38.5h-439v-514z" />
<glyph unicode="S" horiz-adv-x="1341" d="M68 319l194 101q33 -78 101.5 -131.5t152 -77t178.5 -23.5q74 0 135.5 10.5t111.5 33.5t78 62.5t28 92.5q0 49 -30.5 85.5t-83 59.5t-120.5 41.5t-143 36t-150.5 38t-143.5 52.5t-120.5 74.5t-83.5 109.5t-31 152v5q-1 83 29 153q30 72 82.5 119.5t122.5 81t145.5 48.5 t155.5 15q194 0 337 -67t210 -172l-150 -146q-157 174 -391 174q-135 0 -223 -53.5t-88 -153.5q0 -48 31 -84t83.5 -59.5t120 -42.5t142.5 -37t150.5 -39t143 -53.5t120 -74.5t83.5 -108t31 -149q0 -86 -32 -156.5t-87 -118.5t-130 -80.5t-159 -47.5t-176 -15 q-218 0 -386 91.5t-238 252.5z" />
<glyph unicode="T" horiz-adv-x="1257" d="M43 1221v213h1171v-213h-469v-1221h-233v1221h-469z" />
<glyph unicode="U" horiz-adv-x="1490" d="M135 580v854h234v-854q0 -194 105 -293t280 -99q170 0 269 100.5t99 291.5v854h234v-854q0 -121 -30 -221t-84.5 -170.5t-130 -119t-166 -71.5t-193.5 -23q-126 0 -235.5 36.5t-195.5 108.5t-136 190t-50 270z" />
<glyph unicode="V" horiz-adv-x="1503" d="M37 1434h258l457 -1162l456 1162h258l-594 -1434h-241z" />
<glyph unicode="W" horiz-adv-x="2220" d="M45 1434h258l363 -1098l360 1098h168l369 -1098l356 1098h258l-514 -1432h-203l-348 999l-344 -999h-203z" />
<glyph unicode="X" horiz-adv-x="1409" d="M53 0l504 727l-483 707h254l377 -553l376 553h254l-485 -707l506 -727h-262l-389 567l-390 -567h-262z" />
<glyph unicode="Y" horiz-adv-x="1400" d="M25 1434h274l393 -621l408 621h278l-569 -836v-598h-234v598z" />
<glyph unicode="Z" horiz-adv-x="1382" d="M135 0v201l813 1018h-786v215h1085v-205l-811 -1012h811v-217h-1112z" />
<glyph unicode="[" horiz-adv-x="536" d="M102 -348v2128h424v-181h-217v-1763h217v-184h-424z" />
<glyph unicode="\" horiz-adv-x="923" d="M0 1567h221l703 -1735h-219z" />
<glyph unicode="]" horiz-adv-x="536" d="M10 -164h217v1763h-217v181h424v-2128h-424v184z" />
<glyph unicode="^" horiz-adv-x="1183" d="M31 625l489 809h133l500 -809h-233l-332 579l-336 -579h-221z" />
<glyph unicode="_" horiz-adv-x="1323" d="M0 -18h1323v-158h-1323v158z" />
<glyph unicode="`" horiz-adv-x="1024" d="M293 1526h256l184 -365h-192z" />
<glyph unicode="a" d="M72 506q0 158 68 279.5t184 185t262 63.5q109 0 207.5 -46.5t144.5 -113.5v136h213v-1010h-213v141q-55 -74 -148 -120t-215 -46q-100 0 -190 35.5t-160 101t-111.5 168t-41.5 226.5zM287 506q0 -152 93.5 -245t231.5 -93q105 0 181 50.5t110.5 125.5t34.5 162 q0 64 -20.5 123t-59.5 108t-103 78t-143 29q-138 0 -231.5 -93t-93.5 -245z" />
<glyph unicode="b" d="M113 0v1434h213v-574q53 78 147 126t207 48q224 0 368 -142.5t144 -385.5q0 -237 -142 -384t-364 -147q-229 0 -360 175v-150h-213zM340 506q0 -146 94.5 -241t229.5 -95q134 0 223.5 93.5t89.5 242.5q0 152 -90 243t-225 91q-134 0 -228 -95t-94 -239z" />
<glyph unicode="c" horiz-adv-x="1040" d="M72 504q0 120 42 220.5t114 168t169 104.5t207 37q109 0 201.5 -36.5t155.5 -94.5l-136 -141q-41 33 -101.5 54.5t-121.5 21.5q-138 0 -227.5 -92t-89.5 -242q0 -153 92 -242.5t227 -89.5q150 0 248 98l137 -137q-161 -158 -385 -158q-147 0 -266.5 61t-192.5 183 t-73 285z" />
<glyph unicode="d" d="M72 506q0 168 68 289t182.5 180t263.5 59q115 0 212 -46.5t140 -119.5v566h213v-1434h-213v152q-46 -77 -144 -127t-221 -50q-104 0 -195 37t-159 103.5t-107.5 167.5t-39.5 223zM287 506q0 -148 90.5 -242t224.5 -94q136 0 230 94.5t94 241.5q0 144 -95 239t-229 95 q-135 0 -225 -91t-90 -243z" />
<glyph unicode="e" horiz-adv-x="1165" d="M72 512q0 227 149 374.5t373 147.5q116 0 211.5 -38t164.5 -112q70 -74 102 -192q23 -83 22 -181q0 -42 -4 -87h-797q12 -115 101.5 -185.5t226.5 -70.5q82 0 168 30.5t137 86.5l133 -138q-175 -172 -443 -172q-248 0 -396 146.5t-148 390.5zM297 592h590 q-7 127 -85 197.5t-210 70.5q-122 0 -200 -70.5t-95 -197.5z" />
<glyph unicode="f" horiz-adv-x="659" d="M113 0v1075q0 189 101.5 286t293.5 97q73 0 148.5 -21.5t129.5 -56.5l-81 -159q-54 28 -94 40.5t-91 12.5q-90 0 -141 -49.5t-51 -149.5v-65h303v-164h-303v-846h-215z" />
<glyph unicode="g" horiz-adv-x="1241" d="M72 524q0 229 137 369.5t362 140.5q116 0 211 -50.5t131 -119.5v146h217v-979q0 -136 -68.5 -237.5t-183.5 -152.5t-260 -51q-159 0 -279.5 50t-197.5 129l125 165q59 -59 151 -104t201 -45q125 0 211 64t86 178v143q-121 -164 -342 -164q-225 0 -363 146.5t-138 371.5z M285 524q0 -148 85 -231.5t224 -83.5q136 0 219.5 88t83.5 227q0 136 -83.5 227t-219.5 91q-138 0 -223.5 -86t-85.5 -232z" />
<glyph unicode="h" horiz-adv-x="1179" d="M113 0v1434h213v-543q51 67 135.5 105t173.5 38q217 0 325.5 -131.5t108.5 -357.5v-545h-215v543q0 140 -66.5 213t-185.5 73q-123 0 -198.5 -84t-75.5 -219v-526h-215z" />
<glyph unicode="i" horiz-adv-x="438" d="M88 1329q0 61 39 95t92 34t92 -34t39 -95t-39 -96t-92 -35t-92 35t-39 96zM113 0v1010h213v-1010h-213z" />
<glyph unicode="j" horiz-adv-x="452" d="M-209 -348l76 170q66 -35 119 -35h8q70 3 94.5 52t24.5 147v1024h215v-1024q0 -186 -80 -291t-244 -105q-112 0 -213 62zM88 1329q0 61 39 95t92 34t92 -34t39 -95t-39 -96t-92 -35t-92 35t-39 96z" />
<glyph unicode="k" horiz-adv-x="1034" d="M113 0v1434h213v-826l364 402h268l-362 -383l420 -627h-260l-314 459l-116 -123v-336h-213z" />
<glyph unicode="l" horiz-adv-x="438" d="M113 0v1434h213v-1434h-213z" />
<glyph unicode="m" horiz-adv-x="1808" d="M113 0v1010h213v-123q41 71 115 109t171 38q108 0 193 -50.5t119 -147.5q51 95 141 146.5t205 51.5q209 0 318.5 -115t109.5 -333v-586h-215v559q0 126 -58.5 197t-169.5 71q-112 0 -175.5 -73t-63.5 -199v-555h-213v555q0 126 -65 200t-177 74q-111 0 -173 -73.5 t-62 -200.5v-555h-213z" />
<glyph unicode="n" horiz-adv-x="1202" d="M113 0v1010h204v-146q46 80 133 125t197 45q203 0 324 -122.5t121 -348.5v-563h-215v541q0 138 -71 214t-200 76q-126 0 -204 -82.5t-78 -216.5v-532h-211z" />
<glyph unicode="o" horiz-adv-x="1183" d="M72 504q0 232 144 381t376 149q233 0 376.5 -149t143.5 -381q0 -233 -142.5 -381t-377.5 -148t-377.5 148t-142.5 381zM285 504q0 -148 84 -241t223 -93t223 93t84 241t-84 242t-223 94t-223 -94t-84 -242z" />
<glyph unicode="p" d="M113 -385v1395h213v-156q60 87 151 133.5t193 46.5h3q230 0 374 -149q145 -150 145 -381q0 -232 -139.5 -380.5t-372.5 -148.5q-115 0 -211 45.5t-145 116.5v-522h-211zM344 504q0 -136 89.5 -231t225.5 -95q138 0 228 93t90 233q0 143 -87.5 235t-230.5 92 q-141 0 -228 -94t-87 -233z" />
<glyph unicode="q" horiz-adv-x="1261" d="M72 504q0 229 143.5 378t368.5 152q122 0 214.5 -51.5t137.5 -122.5v150h215v-1395h-213v524q-56 -76 -149 -120t-205 -44q-233 0 -372.5 148.5t-139.5 380.5zM287 504q0 -147 88.5 -235.5t228.5 -88.5q137 0 226.5 93t89.5 231q0 136 -87.5 230.5t-228.5 94.5 q-144 0 -230.5 -89t-86.5 -236z" />
<glyph unicode="r" horiz-adv-x="892" d="M113 0v1010h200v-136q109 160 299 160h6q70 0 132 -23q66 -24 112 -65l-96 -184q-81 63 -178 63q-109 0 -185.5 -75.5t-76.5 -208.5v-541h-213z" />
<glyph unicode="s" horiz-adv-x="1013" d="M61 166l111 141q58 -67 161 -111t202 -44q91 0 147.5 35t56.5 94q0 38 -35.5 63.5t-92 40.5t-125 29t-137.5 35t-125.5 51.5t-92 86.5t-35.5 132q0 77 34.5 138.5t94 99.5t134 57.5t159.5 19.5q255 0 389 -131l-121 -141q-106 98 -270 98q-91 0 -149 -34.5t-58 -96.5 q0 -37 35.5 -62.5t92 -40.5t125 -28.5t137.5 -35t125.5 -52t92 -86.5t35.5 -133q0 -96 -59 -169.5t-153.5 -110t-207.5 -36.5q-157 0 -282 53t-189 138z" />
<glyph unicode="t" horiz-adv-x="727" d="M113 340v983h213v-313h292v-166h-294v-504q0 -85 28.5 -128.5t102.5 -43.5q28 0 55 6.5t41.5 12.5t44.5 20l59 -180q-106 -52 -229 -52q-156 0 -234.5 94.5t-78.5 270.5z" />
<glyph unicode="u" horiz-adv-x="1165" d="M113 442v568h213v-572q0 -266 258 -266q129 0 192.5 68t63.5 198v572h215v-568q0 -231 -126.5 -349t-344.5 -118q-219 0 -345 118t-126 349z" />
<glyph unicode="v" horiz-adv-x="1153" d="M31 1010h233l324 -791l309 791h225l-428 -1014h-233z" />
<glyph unicode="w" horiz-adv-x="1703" d="M33 1010h237l250 -791l242 791h182l242 -791l250 791h235l-352 -1010h-248l-217 682l-217 -682h-248z" />
<glyph unicode="x" horiz-adv-x="1085" d="M41 0l362 516l-340 494h256l224 -359l223 359h256l-338 -494l360 -516h-253l-248 367l-246 -367h-256z" />
<glyph unicode="y" horiz-adv-x="1202" d="M113 506v504h213v-482q0 -147 61 -219t191 -73q127 0 213 84t86 217v473h215v-979q0 -205 -139 -323t-359 -118q-145 0 -268.5 56t-192.5 133l123 158q51 -59 142.5 -105.5t195.5 -46.5q123 0 203 63.5t80 178.5v168q-54 -74 -148 -115t-199 -41q-187 0 -302 120 t-115 347z" />
<glyph unicode="z" horiz-adv-x="991" d="M84 0v178l553 645h-539v187h801v-181l-553 -643h563v-186h-825z" />
<glyph unicode="{" horiz-adv-x="653" d="M41 631v160q47 0 79.5 15t49 43.5t23 61.5t6.5 78v465q0 195 99.5 278t313.5 46v-166q-121 14 -167 -20.5t-46 -147.5v-445q0 -41 -2.5 -70.5t-12 -66t-26.5 -62.5t-48 -50t-74 -39q54 -18 88.5 -48.5t49.5 -72.5t20 -78.5t5 -89.5v-445q0 -113 46 -147t167 -20v-166 q-214 -37 -313.5 46t-99.5 277v465q0 45 -6.5 78t-23 62t-49 44t-79.5 15z" />
<glyph unicode="|" horiz-adv-x="507" d="M164 -512v2048h180v-2048h-180z" />
<glyph unicode="}" horiz-adv-x="653" d="M41 -190q121 -14 167 20t46 147v445q0 53 5 90t20.5 78.5t50 72t88.5 48.5q-54 18 -88.5 48.5t-50 72.5t-20.5 78.5t-5 88.5v445q0 113 -46 147.5t-167 20.5v166q214 37 314 -46.5t100 -277.5v-465q0 -45 6.5 -77.5t22.5 -61.5t48.5 -44t79.5 -15v-160q-47 0 -79.5 -15 t-48.5 -44t-22.5 -62t-6.5 -78v-465q0 -194 -100 -277t-314 -46v166z" />
<glyph unicode="~" horiz-adv-x="1132" d="M51 547q103 250 305 250q66 0 151.5 -34.5t163.5 -69t126 -34.5q44 0 73 29.5t48 91.5l163 -55q-31 -116 -101 -188t-171 -72q-60 0 -125.5 21.5t-113 47t-105.5 47t-105 21.5q-51 0 -86 -33t-63 -92z" />
<glyph unicode="&#xa1;" horiz-adv-x="530" d="M133 905q0 61 38.5 95t92.5 34t93.5 -34t39.5 -95q0 -62 -39.5 -96.5t-93.5 -34.5t-92.5 34.5t-38.5 96.5zM150 -424v1079h229v-1079h-229z" />
<glyph unicode="&#xa2;" horiz-adv-x="1030" d="M72 717q0 204 112 341t291 175v201h201v-191q168 -22 285 -127l-136 -143q-41 35 -101 56.5t-122 21.5q-138 0 -227.5 -92t-89.5 -242q0 -153 92 -242.5t227 -89.5q150 0 248 98l137 -137q-135 -135 -313 -153v-193h-201v201q-179 38 -291 173.5t-112 342.5z" />
<glyph unicode="&#xa3;" horiz-adv-x="1222" d="M92 586v184h131q-30 150 -30 223q0 221 120.5 343t331.5 122q166 0 284.5 -74.5t168.5 -177.5l-154 -143q-103 184 -293 184q-116 0 -171.5 -67.5t-55.5 -182.5q0 -72 31 -227h422v-184h-390q7 -61 7 -103q0 -174 -99 -270h735v-213h-1015v205q81 62 114 133.5t33 163.5 q0 40 -6 84h-164z" />
<glyph unicode="&#xa5;" horiz-adv-x="1312" d="M51 1434h271l327 -580l340 580h273l-412 -668h272v-168h-358v-145h358v-168h-358v-285h-232v285h-339v168h339v145h-339v168h256z" />
<glyph unicode="&#xa6;" horiz-adv-x="548" d="M184 307h181v-819h-181v819zM184 717v819h181v-819h-181z" />
<glyph unicode="&#xa7;" horiz-adv-x="1175" d="M113 784q0 152 96 238q-12 40 -12 82q0 89 32 158t88 111t126.5 63.5t152.5 21.5q124 0 232.5 -49t185.5 -137l-101 -160q-64 75 -145 119.5t-166 44.5q-75 0 -126.5 -40t-51.5 -118q0 -40 22 -76t59 -64t85 -55t101 -53t105.5 -53.5t100.5 -61t85 -71t59 -87.5t22 -108 q0 -154 -96 -243q14 -44 14 -76q0 -179 -121 -272t-313 -93q-123 0 -232.5 50t-185.5 137l100 162q63 -74 148 -119t170 -45q84 0 142.5 40t58.5 117q0 46 -35 86.5t-91 72.5t-124 64.5t-135.5 71.5t-123.5 84.5t-91 112t-35 145.5zM297 795q0 -53 38 -98t102 -81t133 -69.5 t147 -79.5t129 -94q26 44 26 94q0 53 -38 96t-102 77.5t-133.5 67.5t-146 81.5t-126.5 103.5q-29 -39 -29 -98z" />
<glyph unicode="&#xa8;" horiz-adv-x="1024" d="M197 1337q0 55 34 86t82 31q46 0 80.5 -31t34.5 -86q0 -54 -34.5 -84t-80.5 -30q-48 0 -82 30t-34 84zM596 1337q0 55 35 86t82 31t81.5 -31t34.5 -86q0 -54 -34.5 -84t-81.5 -30t-82 30t-35 84z" />
<glyph unicode="&#xa9;" horiz-adv-x="1662" d="M92 713q0 154 49.5 288.5t141 236.5t233 161t315.5 59q173 0 314.5 -59t233.5 -160.5t142 -236.5t50 -289q0 -153 -50 -286.5t-142 -234.5t-233.5 -159t-314.5 -58q-174 0 -315.5 58t-233 159t-141 234.5t-49.5 286.5zM229 713q0 -130 40 -240.5t115 -191.5t190 -126.5 t257 -45.5q189 0 327.5 79.5t208 215t69.5 309.5q0 177 -69.5 314.5t-208 218.5t-327.5 81q-142 0 -257 -46.5t-190 -129t-115 -194.5t-40 -244zM424 713q0 124 57.5 220t152 145.5t208.5 49.5q167 0 286 -108l-116 -121q-80 64 -172 64q-101 0 -167.5 -70.5t-66.5 -179.5 q0 -110 69 -178t167 -68q113 0 188 78l121 -115q-125 -131 -309 -131q-114 0 -208 48t-152 143.5t-58 222.5z" />
<glyph unicode="&#xab;" horiz-adv-x="1091" d="M51 588l369 508l160 -76l-306 -432l306 -430l-160 -78zM451 588l368 508l160 -76l-305 -432l305 -430l-160 -78z" />
<glyph unicode="&#xac;" horiz-adv-x="1161" d="M102 592v203h957v-514h-189v311h-768z" />
<glyph unicode="&#xad;" horiz-adv-x="1228" d="M82 565v211h747v-211h-747z" />
<glyph unicode="&#xae;" horiz-adv-x="737" d="M61 1149q0 131 82.5 220t225.5 89t225 -88.5t82 -220.5t-82 -219.5t-225 -87.5t-225.5 87.5t-82.5 219.5zM131 1149q0 -106 63 -173t175 -67t174.5 67t62.5 173t-62.5 174t-174.5 68t-175 -68t-63 -174zM258 1016v287h127q46 0 74 -30.5t28 -66.5q0 -29 -16.5 -53.5 t-44.5 -34.5l66 -102h-76l-51 92h-48v-92h-59zM317 1167h62q41 0 41 39t-41 39h-62v-78z" />
<glyph unicode="&#xaf;" horiz-adv-x="1024" d="M217 1231v162h592v-162h-592z" />
<glyph unicode="&#xb0;" horiz-adv-x="729" d="M92 1204q0 115 80 184.5t193 69.5q114 0 193 -69.5t79 -184.5t-79 -184.5t-193 -69.5q-113 0 -193 69.5t-80 184.5zM229 1204q0 -52 36.5 -88.5t99.5 -36.5q65 0 101 36.5t36 88.5q0 54 -36 90.5t-101 36.5q-63 0 -99.5 -36.5t-36.5 -90.5z" />
<glyph unicode="&#xb1;" horiz-adv-x="1093" d="M102 0v203h957v-203h-957zM102 756v202h377v377h203v-377h377v-202h-377v-377h-203v377h-377z" />
<glyph unicode="&#xb2;" horiz-adv-x="735" d="M72 1333q131 125 315 125q125 0 206 -68t81 -173q0 -70 -23 -118t-59.5 -71t-80.5 -36.5t-88 -21t-80.5 -18t-59.5 -34t-23 -62.5v-10h406v-146h-584v136q0 66 18 113.5t47 71.5t66.5 40.5t76.5 21.5t76.5 13.5t66.5 18t47 33.5t18 62q0 37 -37 62.5t-92 25.5 q-101 0 -193 -84z" />
<glyph unicode="&#xb3;" horiz-adv-x="751" d="M61 780l64 146q42 -40 112 -68.5t138 -28.5q69 0 105 24.5t36 61.5q0 34 -35 59t-98 25h-158v125h148q64 0 95.5 23.5t31.5 58.5q0 41 -33.5 66.5t-99.5 25.5q-120 0 -228 -77l-45 147q123 90 289 90q132 0 211.5 -63.5t79.5 -171.5q0 -86 -76 -148q41 -27 66.5 -70 t25.5 -92q0 -63 -27 -110.5t-73 -74.5t-100 -39.5t-115 -12.5q-96 0 -181 31.5t-133 72.5z" />
<glyph unicode="&#xb4;" horiz-adv-x="1024" d="M293 1161l184 365h256l-248 -365h-192z" />
<glyph unicode="&#xb5;" horiz-adv-x="1095" d="M102 -385v1395h215v-572q0 -266 232 -266q231 0 231 266v572h213v-568q0 -467 -444 -467q-147 0 -232 70v-430h-215z" />
<glyph unicode="&#xb6;" horiz-adv-x="1325" d="M51 965q0 240 119.5 354.5t382.5 114.5h680v-1643h-176v1446h-213v-1446h-178v698q-44 -6 -113 -6q-111 0 -200 27t-158 83.5t-106.5 151t-37.5 220.5z" />
<glyph unicode="&#xb7;" horiz-adv-x="468" d="M61 731q0 61 40 95t94 34q53 0 92 -34t39 -95t-39 -96t-92 -35q-54 0 -94 35t-40 96z" />
<glyph unicode="&#xb8;" horiz-adv-x="1024" d="M266 -414l60 103q87 -68 172 -68q52 0 82 22.5t30 57.5q0 34 -27.5 58t-74.5 24q-30 0 -64 -12l-49 30l82 244h135l-53 -166q95 0 149 -51.5t54 -122.5q0 -81 -67.5 -141t-190.5 -60q-81 0 -142.5 25t-95.5 57z" />
<glyph unicode="&#xb9;" horiz-adv-x="391" d="M31 1274v160h288v-734h-176v574h-112z" />
<glyph unicode="&#xbb;" horiz-adv-x="1091" d="M113 158l305 430l-305 432l159 76l369 -508l-369 -508zM512 158l305 430l-305 432l160 76l368 -508l-368 -508z" />
<glyph unicode="&#xbc;" horiz-adv-x="1345" d="M31 1274v160h288v-734h-176v574h-112zM94 -129l793 1626h170l-793 -1626h-170zM637 117v129l274 487h191l-258 -471h194v254h158v-254h88v-145h-88v-117h-158v117h-401z" />
<glyph unicode="&#xbd;" horiz-adv-x="1443" d="M31 1274v160h288v-734h-176v574h-112zM94 -129l793 1626h170l-793 -1626h-170zM780 633q131 125 316 125q125 0 205.5 -68t80.5 -174q0 -70 -23 -118t-59 -71t-80 -36t-88.5 -20.5t-80.5 -18t-59 -34t-23 -62.5v-11h405v-145h-583v135q0 66 18 113.5t47 72t66.5 40.5 t76 21.5t76 14t66.5 18t47 34t18 61.5t-37 62.5t-92 25.5q-100 0 -192 -84z" />
<glyph unicode="&#xbe;" horiz-adv-x="1644" d="M61 780l64 146q42 -40 112 -68.5t138 -28.5q69 0 105 24.5t36 61.5q0 34 -35 59t-98 25h-158v125h148q64 0 95.5 23.5t31.5 58.5q0 41 -33.5 66.5t-99.5 25.5q-120 0 -228 -77l-45 147q123 90 289 90q132 0 211.5 -63.5t79.5 -171.5q0 -86 -76 -148q41 -27 66.5 -70 t25.5 -92q0 -63 -27 -110.5t-73 -74.5t-100 -39.5t-115 -12.5q-96 0 -181 31.5t-133 72.5zM393 -129l793 1626h170l-793 -1626h-170zM936 117v129l274 487h191l-258 -471h194v254h158v-254h88v-145h-88v-117h-158v117h-401z" />
<glyph unicode="&#xbf;" horiz-adv-x="1181" d="M102 -47q0 69 15.5 125t42 93t60.5 66.5t72 50.5t75.5 40t71.5 40t60.5 46t42 61.5t15.5 83.5v90h231v-90q0 -77 -19 -137t-51 -96t-72 -65.5t-82 -47.5t-82 -40.5t-72 -46t-51 -62.5t-19 -91q0 -58 27 -100.5t72 -65t93 -33t99 -10.5q202 0 358 173l121 -173 q-75 -90 -204.5 -151.5t-280.5 -61.5q-85 0 -160.5 14.5t-142.5 46t-115.5 77.5t-76.5 113.5t-28 150.5zM547 905q0 61 39 95t92 34q54 0 92.5 -34t38.5 -95q0 -62 -38.5 -96.5t-92.5 -34.5t-92.5 34.5t-38.5 96.5z" />
<glyph unicode="&#xc0;" horiz-adv-x="1542" d="M37 0l631 1434h227l612 -1434h-254l-120 291h-730l-122 -291h-244zM406 1950h256l184 -365h-193zM494 506h548l-274 653z" />
<glyph unicode="&#xc1;" horiz-adv-x="1542" d="M37 0l631 1434h227l612 -1434h-254l-120 291h-730l-122 -291h-244zM494 506h548l-274 653zM682 1585l184 365h256l-248 -365h-192z" />
<glyph unicode="&#xc2;" horiz-adv-x="1542" d="M37 0l631 1434h227l612 -1434h-254l-120 291h-730l-122 -291h-244zM432 1585l279 365h123l280 -365h-219l-123 184l-121 -184h-219zM494 506h548l-274 653z" />
<glyph unicode="&#xc3;" horiz-adv-x="1542" d="M37 0l631 1434h227l612 -1434h-254l-120 291h-730l-122 -291h-244zM422 1698q16 83 66 137.5t128 54.5q56 0 154 -31.5t133 -31.5q59 0 86 76l135 -58q-29 -90 -82.5 -137t-121.5 -47q-50 0 -144 29.5t-125 29.5q-32 0 -51 -18.5t-29 -61.5zM494 506h548l-274 653z" />
<glyph unicode="&#xc4;" horiz-adv-x="1542" d="M37 0l631 1434h227l612 -1434h-254l-120 291h-730l-122 -291h-244zM457 1761q0 55 34 86t82 31q46 0 80.5 -31t34.5 -86q0 -54 -34.5 -84t-80.5 -30q-48 0 -82 30t-34 84zM494 506h548l-274 653zM856 1761q0 55 35 86t82 31t82 -31t35 -86q0 -54 -35 -84t-82 -30t-82 30 t-35 84z" />
<glyph unicode="&#xc5;" horiz-adv-x="1542" d="M37 0l631 1434h227l612 -1434h-254l-120 291h-730l-122 -291h-244zM494 506h548l-274 653zM580 1769q0 84 56.5 130.5t135.5 46.5q81 0 137 -46t56 -131t-56.5 -131.5t-136.5 -46.5q-79 0 -135.5 46.5t-56.5 131.5zM682 1769q0 -36 24 -58.5t66 -22.5q43 0 66.5 22.5 t23.5 58.5q0 35 -23.5 57.5t-66.5 22.5q-42 0 -66 -22.5t-24 -57.5z" />
<glyph unicode="&#xc6;" horiz-adv-x="1949" d="M33 0l901 1434h893v-217h-635v-394h608v-213h-608v-387h645v-223h-862v342h-465l-211 -342h-266zM639 549h336v612z" />
<glyph unicode="&#xc7;" horiz-adv-x="1421" d="M76 709q0 115 28.5 222.5t89.5 203.5t148 167.5t212.5 113.5t274.5 42t285 -53.5t242 -159.5l-154 -143q-73 71 -171.5 108t-201.5 37q-106 0 -194.5 -30.5t-149 -82t-102 -121t-61 -146t-19.5 -158.5q0 -80 19 -153t60.5 -138.5t101.5 -114t149 -76.5t196 -28 q103 0 205.5 40t175.5 113l158 -164q-101 -100 -244 -156.5t-295 -56.5h-34l-31 -96q95 0 149 -51.5t54 -122.5q0 -81 -67.5 -141t-190.5 -60q-81 0 -142.5 25t-95.5 57l59 103q87 -68 172 -68q53 0 83 22.5t30 57.5q0 34 -27.5 58t-74.5 24q-29 0 -64 -12l-49 30l64 189 q-146 25 -261 94t-185 167t-106 214.5t-36 243.5z" />
<glyph unicode="&#xc8;" horiz-adv-x="1243" d="M135 0v1434h981v-215h-749v-394h708v-213h-708v-395h763v-217h-995zM254 1950h256l184 -365h-192z" />
<glyph unicode="&#xc9;" horiz-adv-x="1243" d="M135 0v1434h981v-215h-749v-394h708v-213h-708v-395h763v-217h-995zM530 1585l185 365h256l-248 -365h-193z" />
<glyph unicode="&#xca;" horiz-adv-x="1243" d="M135 0v1434h981v-215h-749v-394h708v-213h-708v-395h763v-217h-995zM281 1585l278 365h123l281 -365h-220l-122 184l-121 -184h-219z" />
<glyph unicode="&#xcb;" horiz-adv-x="1243" d="M135 0v1434h981v-215h-749v-394h708v-213h-708v-395h763v-217h-995zM305 1761q0 55 34.5 86t82.5 31q46 0 80.5 -31t34.5 -86q0 -54 -34.5 -84t-80.5 -30q-48 0 -82.5 30t-34.5 84zM705 1761q0 55 34.5 86t81.5 31t82 -31t35 -86q0 -54 -35 -84t-82 -30t-81.5 30 t-34.5 84z" />
<glyph unicode="&#xcc;" horiz-adv-x="503" d="M-117 1950h258l185 -365h-193zM135 0v1434h234v-1434h-234z" />
<glyph unicode="&#xcd;" horiz-adv-x="503" d="M135 0v1434h234v-1434h-234zM160 1585l184 365h256l-248 -365h-192z" />
<glyph unicode="&#xce;" horiz-adv-x="503" d="M-90 1585l280 365h123l281 -365h-219l-123 184l-121 -184h-221zM135 0v1434h234v-1434h-234z" />
<glyph unicode="&#xcf;" horiz-adv-x="503" d="M-66 1761q0 55 35.5 86t83.5 31q46 0 80.5 -31t34.5 -86q0 -54 -34.5 -84t-80.5 -30q-48 0 -83.5 30t-35.5 84zM135 0v1434h234v-1434h-234zM336 1761q0 55 35 86t82 31t81.5 -31t34.5 -86q0 -54 -34.5 -84t-81.5 -30t-82 30t-35 84z" />
<glyph unicode="&#xd0;" horiz-adv-x="1474" d="M-39 608v211h174v615h545q143 0 262 -38.5t202 -104.5t141 -156t85.5 -192t28.5 -212q1 -114 -24.5 -219.5t-82.5 -199t-140 -162.5t-204.5 -109.5t-267.5 -40.5h-545v608h-174zM369 223h311q103 0 187.5 29t141 77.5t94.5 114.5t54 138t14 149q-2 94 -32 178t-87 153.5 t-153 110.5t-219 41h-311v-395h340v-211h-340v-385z" />
<glyph unicode="&#xd1;" horiz-adv-x="1445" d="M135 0v1434h211l731 -1008v1008h234v-1434h-195l-747 1032v-1032h-234zM373 1698q16 83 66 137.5t128 54.5q55 0 154 -31.5t133 -31.5q59 0 86 76l135 -58q-29 -90 -83 -137t-122 -47q-50 0 -143.5 29.5t-124.5 29.5q-32 0 -51 -18.5t-29 -61.5z" />
<glyph unicode="&#xd2;" horiz-adv-x="1617" d="M76 717q0 116 27.5 223t87 201.5t144 165t206.5 111t268 40.5t268 -41t207 -111.5t144.5 -165.5t87.5 -202t28 -223q0 -144 -45.5 -274.5t-133.5 -235.5t-231.5 -167.5t-324.5 -62.5q-145 0 -267 41t-207 111.5t-144 165.5t-87 202t-28 222zM303 713q0 -83 18.5 -158.5 t58 -143t98 -116.5t143.5 -78t188 -29q104 0 189.5 29t143.5 78t98 116.5t58.5 143t18.5 158.5q0 84 -18.5 160.5t-58.5 145t-98 118.5t-143.5 79t-189.5 29t-189 -29t-143 -78.5t-98 -118t-58 -145t-18 -161.5zM442 1950h256l185 -365h-193z" />
<glyph unicode="&#xd3;" horiz-adv-x="1617" d="M76 717q0 116 27.5 223t87 201.5t144 165t206.5 111t268 40.5t268 -41t207 -111.5t144.5 -165.5t87.5 -202t28 -223q0 -144 -45.5 -274.5t-133.5 -235.5t-231.5 -167.5t-324.5 -62.5q-145 0 -267 41t-207 111.5t-144 165.5t-87 202t-28 222zM303 713q0 -83 18.5 -158.5 t58 -143t98 -116.5t143.5 -78t188 -29q104 0 189.5 29t143.5 78t98 116.5t58.5 143t18.5 158.5q0 84 -18.5 160.5t-58.5 145t-98 118.5t-143.5 79t-189.5 29t-189 -29t-143 -78.5t-98 -118t-58 -145t-18 -161.5zM719 1585l184 365h256l-248 -365h-192z" />
<glyph unicode="&#xd4;" horiz-adv-x="1617" d="M76 717q0 116 27.5 223t87 201.5t144 165t206.5 111t268 40.5t268 -41t207 -111.5t144.5 -165.5t87.5 -202t28 -223q0 -144 -45.5 -274.5t-133.5 -235.5t-231.5 -167.5t-324.5 -62.5q-145 0 -267 41t-207 111.5t-144 165.5t-87 202t-28 222zM303 713q0 -83 18.5 -158.5 t58 -143t98 -116.5t143.5 -78t188 -29q104 0 189.5 29t143.5 78t98 116.5t58.5 143t18.5 158.5q0 84 -18.5 160.5t-58.5 145t-98 118.5t-143.5 79t-189.5 29t-189 -29t-143 -78.5t-98 -118t-58 -145t-18 -161.5zM469 1585l279 365h122l281 -365h-219l-123 184l-121 -184 h-219z" />
<glyph unicode="&#xd5;" horiz-adv-x="1617" d="M76 717q0 116 27.5 223t87 201.5t144 165t206.5 111t268 40.5t268 -41t207 -111.5t144.5 -165.5t87.5 -202t28 -223q0 -144 -45.5 -274.5t-133.5 -235.5t-231.5 -167.5t-324.5 -62.5q-145 0 -267 41t-207 111.5t-144 165.5t-87 202t-28 222zM303 713q0 -83 18.5 -158.5 t58 -143t98 -116.5t143.5 -78t188 -29q104 0 189.5 29t143.5 78t98 116.5t58.5 143t18.5 158.5q0 84 -18.5 160.5t-58.5 145t-98 118.5t-143.5 79t-189.5 29t-189 -29t-143 -78.5t-98 -118t-58 -145t-18 -161.5zM459 1698q16 83 66 137.5t128 54.5q55 0 154 -31.5t133 -31.5 q59 0 86 76l135 -58q-29 -90 -83 -137t-122 -47q-50 0 -143.5 29.5t-124.5 29.5q-32 0 -51 -18.5t-29 -61.5z" />
<glyph unicode="&#xd6;" horiz-adv-x="1617" d="M76 717q0 116 27.5 223t87 201.5t144 165t206.5 111t268 40.5t268 -41t207 -111.5t144.5 -165.5t87.5 -202t28 -223q0 -144 -45.5 -274.5t-133.5 -235.5t-231.5 -167.5t-324.5 -62.5q-145 0 -267 41t-207 111.5t-144 165.5t-87 202t-28 222zM303 713q0 -83 18.5 -158.5 t58 -143t98 -116.5t143.5 -78t188 -29q104 0 189.5 29t143.5 78t98 116.5t58.5 143t18.5 158.5q0 84 -18.5 160.5t-58.5 145t-98 118.5t-143.5 79t-189.5 29t-189 -29t-143 -78.5t-98 -118t-58 -145t-18 -161.5zM494 1761q0 55 34 86t82 31q46 0 80.5 -31t34.5 -86 q0 -54 -34.5 -84t-80.5 -30q-48 0 -82 30t-34 84zM893 1761q0 55 35 86t82 31t81.5 -31t34.5 -86q0 -54 -34.5 -84t-81.5 -30t-82 30t-35 84z" />
<glyph unicode="&#xd7;" horiz-adv-x="1171" d="M133 383l311 311l-311 310l143 143l310 -311l311 311l141 -143l-309 -310l309 -311l-141 -141l-311 309l-310 -309z" />
<glyph unicode="&#xd8;" horiz-adv-x="1617" d="M76 717q0 116 27.5 223t87 201.5t144 165t206.5 111t268 40.5q188 0 334 -67l98 165h164l-139 -235q137 -103 207.5 -263t70.5 -343q0 -144 -45.5 -274.5t-133.5 -235.5t-231.5 -167.5t-324.5 -62.5q-171 0 -309 58l-115 -195h-162l154 260q-148 100 -224.5 264.5 t-76.5 354.5zM303 713q0 -132 46.5 -243.5t139.5 -182.5l543 917q-96 41 -223 41q-104 0 -189 -29t-143 -78.5t-98 -118t-58 -145t-18 -161.5zM612 219q88 -31 197 -31q104 0 189.5 29t143.5 78t98 116.5t58.5 143t18.5 158.5q0 125 -41.5 234t-124.5 181z" />
<glyph unicode="&#xd9;" horiz-adv-x="1490" d="M135 580v854h234v-854q0 -194 105 -293t280 -99q170 0 269 100.5t99 291.5v854h234v-854q0 -121 -30 -221t-84.5 -170.5t-130 -119t-166 -71.5t-193.5 -23q-126 0 -235.5 36.5t-195.5 108.5t-136 190t-50 270zM379 1950h256l184 -365h-192z" />
<glyph unicode="&#xda;" horiz-adv-x="1490" d="M135 580v854h234v-854q0 -194 105 -293t280 -99q170 0 269 100.5t99 291.5v854h234v-854q0 -121 -30 -221t-84.5 -170.5t-130 -119t-166 -71.5t-193.5 -23q-126 0 -235.5 36.5t-195.5 108.5t-136 190t-50 270zM655 1585l185 365h256l-248 -365h-193z" />
<glyph unicode="&#xdb;" horiz-adv-x="1490" d="M135 580v854h234v-854q0 -194 105 -293t280 -99q170 0 269 100.5t99 291.5v854h234v-854q0 -121 -30 -221t-84.5 -170.5t-130 -119t-166 -71.5t-193.5 -23q-126 0 -235.5 36.5t-195.5 108.5t-136 190t-50 270zM406 1585l278 365h123l280 -365h-219l-123 184l-120 -184 h-219z" />
<glyph unicode="&#xdc;" horiz-adv-x="1490" d="M135 580v854h234v-854q0 -194 105 -293t280 -99q170 0 269 100.5t99 291.5v854h234v-854q0 -121 -30 -221t-84.5 -170.5t-130 -119t-166 -71.5t-193.5 -23q-126 0 -235.5 36.5t-195.5 108.5t-136 190t-50 270zM430 1761q0 55 34.5 86t82.5 31q46 0 80.5 -31t34.5 -86 q0 -54 -34.5 -84t-80.5 -30q-48 0 -82.5 30t-34.5 84zM829 1761q0 55 35 86t82 31t82 -31t35 -86q0 -54 -35 -84t-82 -30t-82 30t-35 84z" />
<glyph unicode="&#xdd;" horiz-adv-x="1400" d="M25 1434h274l393 -621l408 621h278l-569 -836v-598h-234v598zM610 1585l185 365h256l-248 -365h-193z" />
<glyph unicode="&#xde;" horiz-adv-x="1374" d="M111 0l2 1432h225v-238h436q124 0 223.5 -40.5t161.5 -108.5t94.5 -152t32.5 -176q0 -91 -32.5 -175t-94.5 -152.5t-161.5 -109t-223.5 -40.5h-434v-240h-229zM340 446h434q134 0 208.5 79.5t74.5 189.5q0 108 -75 187t-208 79h-434v-535z" />
<glyph unicode="&#xdf;" horiz-adv-x="1314" d="M113 0v1010q0 144 65 247t171 152t241 49q100 0 186 -21.5t155.5 -65t109.5 -119t40 -175.5q0 -67 -36.5 -116t-88 -76.5t-103 -50.5t-88 -51.5t-36.5 -65.5t29 -63.5t75 -42.5t102 -31t112 -37t102 -52.5t75 -84.5t29 -127q0 -95 -53.5 -165.5t-138 -104.5t-187.5 -34 q-148 0 -259 52t-175 139l111 141q58 -69 146.5 -112t179.5 -43q163 0 163 116q0 36 -29 62t-75 43t-101.5 33t-111 39t-101.5 54t-75 84.5t-29 123.5q0 63 35 110.5t84.5 75.5t99 53t84.5 57.5t35 73.5q0 85 -72.5 130.5t-179.5 45.5q-122 0 -193 -63t-71 -170v-1020h-227z " />
<glyph unicode="&#xe0;" d="M72 506q0 158 68 279.5t184 185t262 63.5q109 0 207.5 -46.5t144.5 -113.5v136h213v-1010h-213v141q-55 -74 -148 -120t-215 -46q-100 0 -190 35.5t-160 101t-111.5 168t-41.5 226.5zM285 1526h256l184 -365h-193zM287 506q0 -152 93.5 -245t231.5 -93q105 0 181 50.5 t110.5 125.5t34.5 162q0 64 -20.5 123t-59.5 108t-103 78t-143 29q-138 0 -231.5 -93t-93.5 -245z" />
<glyph unicode="&#xe1;" d="M72 506q0 158 68 279.5t184 185t262 63.5q109 0 207.5 -46.5t144.5 -113.5v136h213v-1010h-213v141q-55 -74 -148 -120t-215 -46q-100 0 -190 35.5t-160 101t-111.5 168t-41.5 226.5zM287 506q0 -152 93.5 -245t231.5 -93q105 0 181 50.5t110.5 125.5t34.5 162 q0 64 -20.5 123t-59.5 108t-103 78t-143 29q-138 0 -231.5 -93t-93.5 -245zM561 1161l184 365h256l-247 -365h-193z" />
<glyph unicode="&#xe2;" d="M72 506q0 158 68 279.5t184 185t262 63.5q109 0 207.5 -46.5t144.5 -113.5v136h213v-1010h-213v141q-55 -74 -148 -120t-215 -46q-100 0 -190 35.5t-160 101t-111.5 168t-41.5 226.5zM287 506q0 -152 93.5 -245t231.5 -93q105 0 181 50.5t110.5 125.5t34.5 162 q0 64 -20.5 123t-59.5 108t-103 78t-143 29q-138 0 -231.5 -93t-93.5 -245zM313 1161l279 365h123l280 -365h-219l-123 185l-121 -185h-219z" />
<glyph unicode="&#xe3;" d="M72 506q0 158 68 279.5t184 185t262 63.5q109 0 207.5 -46.5t144.5 -113.5v136h213v-1010h-213v141q-55 -74 -148 -120t-215 -46q-100 0 -190 35.5t-160 101t-111.5 168t-41.5 226.5zM287 506q0 -152 93.5 -245t231.5 -93q105 0 181 50.5t110.5 125.5t34.5 162 q0 64 -20.5 123t-59.5 108t-103 78t-143 29q-138 0 -231.5 -93t-93.5 -245zM303 1274q16 83 66 137.5t129 54.5q56 0 154 -31.5t132 -31.5q59 0 86 76l136 -58q-29 -90 -83 -137t-122 -47q-50 0 -144 29.5t-125 29.5q-32 0 -50.5 -18t-28.5 -61z" />
<glyph unicode="&#xe4;" d="M72 506q0 158 68 279.5t184 185t262 63.5q109 0 207.5 -46.5t144.5 -113.5v136h213v-1010h-213v141q-55 -74 -148 -120t-215 -46q-100 0 -190 35.5t-160 101t-111.5 168t-41.5 226.5zM287 506q0 -152 93.5 -245t231.5 -93q105 0 181 50.5t110.5 125.5t34.5 162 q0 64 -20.5 123t-59.5 108t-103 78t-143 29q-138 0 -231.5 -93t-93.5 -245zM338 1337q0 55 34.5 86t82.5 31q46 0 80 -31t34 -86q0 -54 -34 -84t-80 -30q-48 0 -82.5 30t-34.5 84zM737 1337q0 55 35 86t82 31t82 -31t35 -86q0 -54 -35 -84t-82 -30t-82 30t-35 84z" />
<glyph unicode="&#xe5;" d="M72 506q0 158 68 279.5t184 185t262 63.5q109 0 207.5 -46.5t144.5 -113.5v136h213v-1010h-213v141q-55 -74 -148 -120t-215 -46q-100 0 -190 35.5t-160 101t-111.5 168t-41.5 226.5zM287 506q0 -152 93.5 -245t231.5 -93q105 0 181 50.5t110.5 125.5t34.5 162 q0 64 -20.5 123t-59.5 108t-103 78t-143 29q-138 0 -231.5 -93t-93.5 -245zM461 1346q0 84 56 130t136 46q81 0 137 -45.5t56 -130.5t-56.5 -132t-136.5 -47q-79 0 -135.5 47t-56.5 132zM563 1346q0 -36 24 -59t66 -23q43 0 66.5 22.5t23.5 59.5q0 35 -23.5 57t-66.5 22 q-42 0 -66 -22t-24 -57z" />
<glyph unicode="&#xe6;" horiz-adv-x="2095" d="M72 506q0 158 68 279.5t184 185t262 63.5q111 0 209 -42t143 -107v125h213v-127q148 151 371 151q92 0 172.5 -23.5t145.5 -73t109 -120.5t62.5 -171.5t7.5 -221.5h-796q15 -119 102 -187.5t223 -68.5q82 0 168 30.5t139 86.5l132 -138q-172 -172 -441 -172 q-246 0 -395 152v-127h-213v131q-131 -156 -363 -156q-100 0 -190 35.5t-160 101t-111.5 168t-41.5 226.5zM285 506q0 -152 94 -245t233 -93q105 0 181 50.5t110.5 125.5t34.5 162q0 64 -20.5 123t-59.5 108t-103 78t-143 29q-139 0 -233 -93t-94 -245zM1227 592h588 q-6 127 -84 197.5t-211 70.5q-121 0 -197.5 -68.5t-95.5 -199.5z" />
<glyph unicode="&#xe7;" horiz-adv-x="1040" d="M72 504q0 120 42 220.5t114 168t169 104.5t207 37q109 0 201.5 -36.5t155.5 -94.5l-136 -141q-41 33 -101.5 54.5t-121.5 21.5q-138 0 -227.5 -92t-89.5 -242q0 -153 92 -242.5t227 -89.5q150 0 248 98l137 -137q-161 -158 -387 -158l-31 -96q95 0 149 -51.5t54 -122.5 q0 -81 -67.5 -141t-190.5 -60q-81 0 -142 25t-95 57l59 103q87 -68 172 -68q53 0 83 22.5t30 57.5q0 34 -28 58t-75 24q-28 0 -63 -12l-49 30l63 189q-177 38 -288 173.5t-111 340.5z" />
<glyph unicode="&#xe8;" horiz-adv-x="1165" d="M72 512q0 227 149 374.5t373 147.5q116 0 211.5 -38t164.5 -111.5t101.5 -192t18.5 -268.5h-797q12 -115 101.5 -185.5t226.5 -70.5q82 0 168 30.5t137 86.5l133 -138q-175 -172 -443 -172q-248 0 -396 146.5t-148 390.5zM227 1526h256l185 -365h-193zM297 592h590 q-7 127 -85 197.5t-210 70.5q-122 0 -200 -70.5t-95 -197.5z" />
<glyph unicode="&#xe9;" horiz-adv-x="1165" d="M72 512q0 227 149 374.5t373 147.5q116 0 211.5 -38t164.5 -111.5t101.5 -192t18.5 -268.5h-797q12 -115 101.5 -185.5t226.5 -70.5q82 0 168 30.5t137 86.5l133 -138q-175 -172 -443 -172q-248 0 -396 146.5t-148 390.5zM297 592h590q-7 127 -85 197.5t-210 70.5 q-122 0 -200 -70.5t-95 -197.5zM504 1161l184 365h256l-248 -365h-192z" />
<glyph unicode="&#xea;" horiz-adv-x="1165" d="M72 512q0 227 149 374.5t373 147.5q116 0 211.5 -38t164.5 -111.5t101.5 -192t18.5 -268.5h-797q12 -115 101.5 -185.5t226.5 -70.5q82 0 168 30.5t137 86.5l133 -138q-175 -172 -443 -172q-248 0 -396 146.5t-148 390.5zM254 1161l278 365h123l281 -365h-219l-123 185 l-121 -185h-219zM297 592h590q-7 127 -85 197.5t-210 70.5q-122 0 -200 -70.5t-95 -197.5z" />
<glyph unicode="&#xeb;" horiz-adv-x="1165" d="M72 512q0 227 149 374.5t373 147.5q116 0 211.5 -38t164.5 -111.5t101.5 -192t18.5 -268.5h-797q12 -115 101.5 -185.5t226.5 -70.5q82 0 168 30.5t137 86.5l133 -138q-175 -172 -443 -172q-248 0 -396 146.5t-148 390.5zM279 1337q0 55 34 86t82 31q46 0 80.5 -31 t34.5 -86q0 -54 -34.5 -84t-80.5 -30q-48 0 -82 30t-34 84zM297 592h590q-7 127 -85 197.5t-210 70.5q-122 0 -200 -70.5t-95 -197.5zM678 1337q0 55 35 86t82 31t81.5 -31t34.5 -86q0 -54 -34.5 -84t-81.5 -30t-82 30t-35 84z" />
<glyph unicode="&#xec;" horiz-adv-x="438" d="M-150 1526h259l184 -365h-193zM113 0v1010h213v-1010h-213z" />
<glyph unicode="&#xed;" horiz-adv-x="438" d="M113 0v1010h213v-1010h-213zM127 1161l184 365h256l-248 -365h-192z" />
<glyph unicode="&#xee;" horiz-adv-x="438" d="M-123 1161l281 365h123l280 -365h-219l-123 185l-121 -185h-221zM113 0v1010h213v-1010h-213z" />
<glyph unicode="&#xef;" horiz-adv-x="438" d="M-98 1337q0 55 35 86t83 31q46 0 80.5 -31t34.5 -86q0 -54 -34.5 -84t-80.5 -30q-48 0 -83 30t-35 84zM113 0v1010h213v-1010h-213zM303 1337q0 55 35 86t82 31t82 -31t35 -86q0 -54 -35 -84t-82 -30t-82 30t-35 84z" />
<glyph unicode="&#xf0;" horiz-adv-x="1185" d="M72 487q0 119 47 223t147.5 180t239.5 95q90 10 181 -12t149 -76q-26 69 -88 133t-140 115l-69 -90l-107 71l60 76q-68 41 -179 58l41 176q148 -27 262 -82l91 112l108 -77l-80 -99q205 -155 292 -345t87 -431q0 -238 -140 -386t-380 -148q-126 0 -227.5 43t-164.5 115 t-96.5 161.5t-33.5 187.5zM291 489q0 -82 33 -152t103.5 -116.5t166.5 -46.5q142 0 221.5 93.5t79.5 221.5t-79.5 222t-221.5 94t-222.5 -94t-80.5 -222z" />
<glyph unicode="&#xf1;" horiz-adv-x="1202" d="M113 0v1010h204v-146q46 80 133 125t197 45q203 0 324 -122.5t121 -348.5v-563h-215v541q0 138 -71 214t-200 76q-126 0 -204 -82.5t-78 -216.5v-532h-211zM252 1274q16 83 66 137.5t128 54.5q56 0 154 -31.5t133 -31.5q59 0 86 76l135 -58q-29 -90 -82.5 -137 t-121.5 -47q-50 0 -144 29.5t-125 29.5q-32 0 -51 -18t-29 -61z" />
<glyph unicode="&#xf2;" horiz-adv-x="1183" d="M72 504q0 232 144 381t376 149q233 0 376.5 -149t143.5 -381q0 -233 -142.5 -381t-377.5 -148t-377.5 148t-142.5 381zM225 1526h256l185 -365h-193zM285 504q0 -148 84 -241t223 -93t223 93t84 241t-84 242t-223 94t-223 -94t-84 -242z" />
<glyph unicode="&#xf3;" horiz-adv-x="1183" d="M72 504q0 232 144 381t376 149q233 0 376.5 -149t143.5 -381q0 -233 -142.5 -381t-377.5 -148t-377.5 148t-142.5 381zM285 504q0 -148 84 -241t223 -93t223 93t84 241t-84 242t-223 94t-223 -94t-84 -242zM502 1161l184 365h256l-248 -365h-192z" />
<glyph unicode="&#xf4;" horiz-adv-x="1183" d="M72 504q0 232 144 381t376 149q233 0 376.5 -149t143.5 -381q0 -233 -142.5 -381t-377.5 -148t-377.5 148t-142.5 381zM252 1161l278 365h123l281 -365h-219l-123 185l-121 -185h-219zM285 504q0 -148 84 -241t223 -93t223 93t84 241t-84 242t-223 94t-223 -94t-84 -242z " />
<glyph unicode="&#xf5;" horiz-adv-x="1183" d="M72 504q0 232 144 381t376 149q233 0 376.5 -149t143.5 -381q0 -233 -142.5 -381t-377.5 -148t-377.5 148t-142.5 381zM242 1274q16 83 66 137.5t128 54.5q56 0 154 -31.5t133 -31.5q59 0 86 76l135 -58q-29 -90 -83 -137t-122 -47q-50 0 -143.5 29.5t-124.5 29.5 q-32 0 -51 -18t-29 -61zM285 504q0 -148 84 -241t223 -93t223 93t84 241t-84 242t-223 94t-223 -94t-84 -242z" />
<glyph unicode="&#xf6;" horiz-adv-x="1183" d="M72 504q0 232 144 381t376 149q233 0 376.5 -149t143.5 -381q0 -233 -142.5 -381t-377.5 -148t-377.5 148t-142.5 381zM276 1337q0 55 34.5 86t82.5 31q46 0 80.5 -31t34.5 -86q0 -54 -34.5 -84t-80.5 -30q-48 0 -82.5 30t-34.5 84zM285 504q0 -148 84 -241t223 -93 t223 93t84 241t-84 242t-223 94t-223 -94t-84 -242zM676 1337q0 55 35 86t82 31t81.5 -31t34.5 -86q0 -54 -34.5 -84t-81.5 -30t-82 30t-35 84z" />
<glyph unicode="&#xf7;" horiz-adv-x="1161" d="M102 592v203h957v-203h-957zM453 299q0 61 38.5 95t90.5 34t90.5 -34t38.5 -95q0 -59 -39 -93t-90 -34t-90 34t-39 93zM453 1087q0 59 39 93t90 34t90 -34t39 -93t-38.5 -92.5t-90.5 -33.5t-90.5 33.5t-38.5 92.5z" />
<glyph unicode="&#xf8;" horiz-adv-x="1183" d="M72 504q0 232 144 381t376 149q92 0 168 -24l80 164h141l-104 -216q111 -68 173 -186.5t62 -267.5q0 -233 -142.5 -381t-377.5 -148q-89 0 -182 27l-88 -178h-140l113 233q-106 68 -164.5 184t-58.5 263zM285 504q0 -169 102 -260l285 585q-46 11 -80 11q-139 0 -223 -94 t-84 -242zM498 182q44 -12 94 -12q139 0 223 93t84 241q0 177 -113 270z" />
<glyph unicode="&#xf9;" horiz-adv-x="1165" d="M113 442v568h213v-572q0 -266 258 -266q129 0 192.5 68t63.5 198v572h215v-568q0 -231 -126.5 -349t-344.5 -118q-219 0 -345 118t-126 349zM215 1526h256l184 -365h-192z" />
<glyph unicode="&#xfa;" horiz-adv-x="1165" d="M113 442v568h213v-572q0 -266 258 -266q129 0 192.5 68t63.5 198v572h215v-568q0 -231 -126.5 -349t-344.5 -118q-219 0 -345 118t-126 349zM492 1161l184 365h256l-248 -365h-192z" />
<glyph unicode="&#xfb;" horiz-adv-x="1165" d="M113 442v568h213v-572q0 -266 258 -266q129 0 192.5 68t63.5 198v572h215v-568q0 -231 -126.5 -349t-344.5 -118q-219 0 -345 118t-126 349zM244 1161l278 365h123l281 -365h-219l-123 185l-121 -185h-219z" />
<glyph unicode="&#xfc;" horiz-adv-x="1165" d="M113 442v568h213v-572q0 -266 258 -266q129 0 192.5 68t63.5 198v572h215v-568q0 -231 -126.5 -349t-344.5 -118q-219 0 -345 118t-126 349zM268 1337q0 55 34.5 86t82.5 31q46 0 80.5 -31t34.5 -86q0 -54 -34.5 -84t-80.5 -30q-48 0 -82.5 30t-34.5 84zM668 1337 q0 55 34.5 86t81.5 31t82 -31t35 -86q0 -54 -35 -84t-82 -30t-81.5 30t-34.5 84z" />
<glyph unicode="&#xfd;" horiz-adv-x="1202" d="M113 506v504h213v-482q0 -147 61 -219t191 -73q127 0 213 84t86 217v473h215v-979q0 -205 -139 -323t-359 -118q-145 0 -268.5 56t-192.5 133l123 158q51 -59 142.5 -105.5t195.5 -46.5q123 0 203 63.5t80 178.5v168q-54 -74 -148 -115t-199 -41q-187 0 -302 120 t-115 347zM512 1161l184 365h256l-247 -365h-193z" />
<glyph unicode="&#xfe;" horiz-adv-x="1277" d="M92 -422v1856h211v-586q52 86 152.5 135t206.5 49q147 -2 260.5 -61t181 -179.5t67.5 -287.5q0 -168 -68 -289.5t-182 -180.5t-262 -59q-102 0 -200 47t-154 140v-584h-213zM324 504q0 -133 92 -226.5t223 -93.5q137 0 227 85t90 235q0 151 -89.5 236t-227.5 85 q-132 0 -223.5 -93t-91.5 -228z" />
<glyph unicode="&#xff;" horiz-adv-x="1202" d="M113 506v504h213v-482q0 -147 61 -219t191 -73q127 0 213 84t86 217v473h215v-979q0 -205 -139 -323t-359 -118q-145 0 -268.5 56t-192.5 133l123 158q51 -59 142.5 -105.5t195.5 -46.5q123 0 203 63.5t80 178.5v168q-54 -74 -148 -115t-199 -41q-187 0 -302 120 t-115 347zM287 1337q0 55 34 86t82 31q46 0 80.5 -31t34.5 -86q0 -54 -34.5 -84t-80.5 -30q-48 0 -82 30t-34 84zM686 1337q0 55 35 86t82 31t82 -31t35 -86q0 -54 -35 -84t-82 -30t-82 30t-35 84z" />
<glyph unicode="&#x152;" horiz-adv-x="2078" d="M80 725q0 157 46 289.5t135 232t229.5 155.5t318.5 56q107 0 213 -24h911v-228h-700v-377h668v-219h-668v-381h709v-227h-920q-106 -29 -213 -29q-180 0 -321.5 59t-229 162.5t-133 238t-45.5 292.5zM311 719q0 -83 19.5 -162t61 -149t100 -122.5t142 -83t181.5 -30.5 q122 0 207 33v1024q-90 37 -211 37q-123 0 -220 -43t-157.5 -118.5t-91.5 -173.5t-31 -212z" />
<glyph unicode="&#x153;" horiz-adv-x="1841" d="M72 504q0 232 144 381t376 149q207 0 340 -121q137 121 338 121q115 0 210.5 -38t165 -111.5t101.5 -192t18 -268.5h-659q-6 -90 -49 -168q94 -88 239 -88q83 0 169 30t137 87l133 -140q-173 -170 -443 -170q-217 0 -358 119q-135 -119 -342 -119q-235 0 -377.5 148 t-142.5 381zM285 504q0 -148 84 -241t223 -93t223 93t84 241t-84 242t-223 94t-223 -94t-84 -242zM1049 770q46 -79 55 -178h459q-7 127 -85 197.5t-210 70.5q-135 0 -219 -90z" />
<glyph unicode="&#x178;" horiz-adv-x="1400" d="M25 1434h274l393 -621l408 621h278l-569 -836v-598h-234v598zM387 1761q0 55 34.5 86t82.5 31q46 0 80 -31t34 -86q0 -54 -34 -84t-80 -30q-48 0 -82.5 30t-34.5 84zM786 1761q0 55 35 86t82 31t82 -31t35 -86q0 -54 -35 -84t-82 -30t-82 30t-35 84z" />
<glyph unicode="&#x2c6;" horiz-adv-x="1024" d="M172 1161l279 365h122l281 -365h-219l-123 185l-121 -185h-219z" />
<glyph unicode="&#x2dc;" horiz-adv-x="1024" d="M162 1274q16 83 66 137.5t128 54.5q56 0 154 -31.5t133 -31.5q59 0 86 76l135 -58q-29 -90 -83 -137t-122 -47q-50 0 -143.5 29.5t-124.5 29.5q-32 0 -51 -18t-29 -61z" />
<glyph unicode="&#x2000;" horiz-adv-x="975" />
<glyph unicode="&#x2001;" horiz-adv-x="1950" />
<glyph unicode="&#x2002;" horiz-adv-x="975" />
<glyph unicode="&#x2003;" horiz-adv-x="1950" />
<glyph unicode="&#x2004;" horiz-adv-x="650" />
<glyph unicode="&#x2005;" horiz-adv-x="487" />
<glyph unicode="&#x2006;" horiz-adv-x="325" />
<glyph unicode="&#x2007;" horiz-adv-x="325" />
<glyph unicode="&#x2008;" horiz-adv-x="243" />
<glyph unicode="&#x2009;" horiz-adv-x="390" />
<glyph unicode="&#x200a;" horiz-adv-x="108" />
<glyph unicode="&#x2010;" horiz-adv-x="911" d="M82 565v211h747v-211h-747z" />
<glyph unicode="&#x2011;" horiz-adv-x="911" d="M82 565v211h747v-211h-747z" />
<glyph unicode="&#x2012;" horiz-adv-x="911" d="M82 565v211h747v-211h-747z" />
<glyph unicode="&#x2013;" horiz-adv-x="1058" d="M51 578v188h957v-188h-957z" />
<glyph unicode="&#x2014;" horiz-adv-x="1372" d="M51 578v188h1270v-188h-1270z" />
<glyph unicode="&#x2018;" horiz-adv-x="448" d="M72 893l153 541h172l-100 -541h-225z" />
<glyph unicode="&#x2019;" horiz-adv-x="448" d="M51 891l101 543h225l-154 -543h-172z" />
<glyph unicode="&#x201a;" horiz-adv-x="448" d="M51 -324l101 543h225l-154 -543h-172z" />
<glyph unicode="&#x201c;" horiz-adv-x="765" d="M74 893l153 541h170l-100 -541h-223zM391 893l154 541h170l-101 -541h-223z" />
<glyph unicode="&#x201d;" horiz-adv-x="765" d="M51 891l101 543h225l-154 -543h-172zM369 891l100 543h225l-153 -543h-172z" />
<glyph unicode="&#x201e;" horiz-adv-x="765" d="M51 -324l101 543h225l-154 -543h-172zM369 -324l100 543h225l-153 -543h-172z" />
<glyph unicode="&#x2022;" horiz-adv-x="598" d="M82 614q0 96 62 155.5t157 59.5q92 0 153.5 -60t61.5 -155q0 -94 -61.5 -153.5t-153.5 -59.5q-95 0 -157 59.5t-62 153.5z" />
<glyph unicode="&#x2026;" horiz-adv-x="1492" d="M61 106q0 61 40 95.5t94 34.5q53 0 92 -34.5t39 -95.5t-39 -96t-92 -35q-54 0 -94 35t-40 96zM573 106q0 61 40 95.5t94 34.5q53 0 92 -34.5t39 -95.5t-39 -96t-92 -35q-54 0 -94 35t-40 96zM1085 106q0 61 40 95.5t94 34.5q53 0 92 -34.5t39 -95.5t-39 -96t-92 -35 q-54 0 -94 35t-40 96z" />
<glyph unicode="&#x202f;" horiz-adv-x="390" />
<glyph unicode="&#x2039;" horiz-adv-x="692" d="M51 588l369 508l160 -76l-306 -432l306 -430l-160 -78z" />
<glyph unicode="&#x203a;" horiz-adv-x="692" d="M113 158l305 430l-305 432l159 76l369 -508l-369 -508z" />
<glyph unicode="&#x205f;" horiz-adv-x="487" />
<glyph unicode="&#x20ac;" horiz-adv-x="1277" d="M20 463v174h134q-4 54 -4 80q0 49 2 74h-132v174h164q32 105 89.5 192.5t142 155.5t204 106.5t261.5 38.5q62 0 142.5 -11t133.5 -26l-65 -209q-118 29 -207 29q-171 0 -283 -74t-164 -202h561l-41 -174h-563q-4 -50 -4 -76q0 -28 4 -78h512l-37 -174h-432 q54 -125 165 -197.5t278 -72.5q52 0 118.5 9t108.5 25l43 -213q-122 -39 -270 -39q-142 0 -260.5 38t-203 105.5t-142 154t-89.5 190.5h-166z" />
<glyph unicode="&#x2122;" horiz-adv-x="1398" d="M72 1288v146h536v-146h-188v-407h-160v407h-188zM678 881v553h151l175 -258l172 258h151v-553h-147v323l-125 -215h-103l-125 215v-323h-149z" />
<glyph unicode="&#x25fc;" horiz-adv-x="1013" d="M0 0v1014h1014v-1014h-1014z" />
</font>
</defs>
</svg>
