<?xml version="1.0" standalone="no"?>
<!DOCTYPE svg PUBLIC "-//W3C//DTD SVG 1.1//EN" "http://www.w3.org/Graphics/SVG/1.1/DTD/svg11.dtd" >
<svg xmlns="http://www.w3.org/2000/svg">
<metadata></metadata>
<defs>
<font id="vp_sanslight" horiz-adv-x="1251" >
<font-face units-per-em="2048" ascent="1536" descent="-512" />
<missing-glyph horiz-adv-x="573" />
<glyph unicode="&#xfb01;" horiz-adv-x="929" d="M131 0v1100q0 92 28.5 162.5t80 112.5t116 62.5t142.5 20.5q76 0 158.5 -24.5t142.5 -69.5l-45 -76q-117 80 -262 80q-117 0 -189 -65.5t-72 -202.5v-90h508v-1010h-100v926h-408v-926h-100z" />
<glyph unicode="&#xfb02;" horiz-adv-x="966" d="M131 0v1112q0 161 82 253.5t262 92.5q139 0 227 -63l-34 -80q-82 53 -197 53q-240 0 -240 -256v-102h332v-84h-332v-926h-100zM735 0v1434h101v-1434h-101z" />
<glyph horiz-adv-x="0" />
<glyph horiz-adv-x="682" />
<glyph unicode=" "  horiz-adv-x="573" />
<glyph unicode="&#x09;" horiz-adv-x="573" />
<glyph unicode="&#xa0;" horiz-adv-x="573" />
<glyph unicode="!" horiz-adv-x="407" d="M123 55q0 38 24.5 59t57.5 21q32 0 56 -21.5t24 -58.5t-24 -58.5t-56 -21.5q-33 0 -57.5 21t-24.5 59zM152 289v1145h104v-1145h-104z" />
<glyph unicode="&#x22;" horiz-adv-x="643" d="M143 909v525h90v-525h-90zM410 909v525h90v-525h-90z" />
<glyph unicode="#" horiz-adv-x="1300" d="M82 350v82h182l150 580h-174v78h192l84 344h94l-84 -344h412l86 344h94l-86 -344h187v-78h-205l-148 -580h195v-82h-213l-86 -350h-94l86 350h-412l-86 -350h-94l86 350h-166zM358 432h414l148 580h-412z" />
<glyph unicode="$" horiz-adv-x="1298" d="M72 289l98 49q63 -124 207 -192t301 -68q83 0 157.5 15.5t139 47.5t103 90t38.5 134q1 67 -32 116.5t-89 79.5t-129 52.5t-153.5 40t-161 36.5t-154 48t-129.5 68.5t-89.5 104.5t-33.5 150q-2 85 26.5 153t76 112t112.5 74t132 43t139 15v228h92v-230q151 -12 268.5 -74 t177.5 -168l-82 -61q-72 101 -184.5 152t-247.5 51q-54 0 -106.5 -8t-106.5 -29.5t-94.5 -53.5t-66 -84t-25.5 -118q0 -61 27 -107.5t74 -75.5t109 -52.5t132 -38t143.5 -33.5t143.5 -36.5t132 -48.5t109 -69.5t74 -99t27 -137.5t-28 -141t-75.5 -108t-112.5 -75t-137 -46.5 t-151 -19.5v-215h-92v217q-182 8 -334 87t-225 225z" />
<glyph unicode="%" horiz-adv-x="1916" d="M100 1069q0 76 19 144.5t55.5 123.5t96 88t135.5 33t135.5 -33t96 -89t55 -124.5t18.5 -144.5q0 -101 -31.5 -187.5t-102.5 -145t-171 -58.5q-61 0 -112 22t-86.5 60t-60 88.5t-36 106.5t-11.5 116zM195 1067q0 -125 55 -212t156 -87t155.5 87t54.5 212 q0 128 -53.5 213.5t-156.5 85.5t-157 -84.5t-54 -214.5zM504 -111l811 1616h98l-809 -1616h-100zM1206 369q0 76 18.5 144.5t55 123.5t96 88t135.5 33t135.5 -33t96 -89t55.5 -124.5t19 -144.5q0 -74 -19 -143t-55 -125t-96.5 -90t-135.5 -34q-100 0 -171 59t-102.5 146 t-31.5 189zM1300 367q0 -125 55 -212t156 -87t156 87t55 212q0 128 -54 213.5t-157 85.5t-157 -84.5t-54 -214.5z" />
<glyph unicode="&#x26;" horiz-adv-x="1355" d="M92 369q0 140 82 237.5t215 153.5q-94 100 -142 181.5t-48 176.5q0 152 101.5 246t262.5 94q176 0 272.5 -92t96.5 -227q0 -61 -19 -114t-50.5 -93.5t-80 -78t-99 -65.5t-116.5 -57l383 -375q25 70 34 164.5t3 147.5h105q8 -76 -9 -186t-57 -206l299 -276h-147l-199 193 q-69 -98 -175 -158t-237 -60q-228 0 -351.5 111.5t-123.5 282.5zM193 369q0 -74 34 -133t88.5 -93.5t118 -52.5t129.5 -18q111 0 203.5 57t132.5 133l-448 428q-123 -57 -190.5 -132.5t-67.5 -188.5zM305 1126q0 -34 8.5 -66.5t19.5 -56t34 -55t38.5 -49.5t46.5 -52.5 t46 -51.5q172 73 251.5 156.5t79.5 187.5q0 103 -76 163t-192 60q-27 0 -57.5 -6.5t-67 -23.5t-65 -42.5t-47.5 -68t-19 -95.5z" />
<glyph unicode="'" horiz-adv-x="376" d="M143 909v525h90v-525h-90z" />
<glyph unicode="(" horiz-adv-x="577" d="M102 725q0 308 105.5 590t279.5 459l70 -62q-153 -162 -252.5 -429t-99.5 -558t99.5 -558t252.5 -429l-70 -62q-174 177 -279.5 459t-105.5 590z" />
<glyph unicode=")" horiz-adv-x="577" d="M20 -262q153 163 253 429.5t100 557.5t-100 557.5t-253 429.5l70 62q174 -177 279.5 -459t105.5 -590t-105.5 -590t-279.5 -459z" />
<glyph unicode="*" horiz-adv-x="579" d="M61 1247l23 74l162 -53l-4 166h84l-4 -166l174 51l22 -74l-176 -45l113 -143l-68 -49l-104 149l-109 -149l-68 47l117 145z" />
<glyph unicode="+" horiz-adv-x="1198" d="M123 643v100h426v426h100v-426h426v-100h-426v-426h-100v426h-426z" />
<glyph unicode="," horiz-adv-x="438" d="M61 -385h111l123 524h-111z" />
<glyph unicode="-" horiz-adv-x="921" d="M102 637v100h717v-100h-717z" />
<glyph unicode="." horiz-adv-x="366" d="M61 55q0 38 24.5 59t57.5 21q32 0 56 -21.5t24 -58.5t-24 -58.5t-56 -21.5q-33 0 -57.5 21t-24.5 59z" />
<glyph unicode="/" horiz-adv-x="864" d="M0 -168l764 1722h100l-766 -1722h-98z" />
<glyph unicode="0" horiz-adv-x="1314" d="M88 719q0 118 21 225t66.5 201.5t111 163.5t160.5 109t210 40t210.5 -40t161 -109.5t111 -164.5t66.5 -203t21 -226q0 -115 -21 -221.5t-66.5 -201.5t-111.5 -165t-161.5 -111t-209.5 -41t-209 41t-160.5 111.5t-111.5 166t-67 202.5t-21 223zM197 717q0 -99 16.5 -191 t53 -174t89 -142.5t130 -96t171.5 -35.5t172 35.5t131 96t90 142.5t53.5 174t16.5 191q0 102 -16.5 194t-53 174t-89.5 142t-131 94.5t-173 34.5t-172 -34t-130 -93.5t-89 -141t-52.5 -174t-16.5 -196.5z" />
<glyph unicode="1" horiz-adv-x="577" d="M61 1333v101h357v-1434h-111v1333h-246z" />
<glyph unicode="2" horiz-adv-x="1150" d="M82 0v119q0 115 30 204.5t81 146t117 99t139.5 70.5t146.5 53.5t139 55t117 67.5t81 98.5t30 141.5q0 131 -103 216t-268 85q-245 0 -361 -203l-96 59q75 114 190 180t267 66q213 0 345 -113.5t132 -289.5q0 -95 -30 -168.5t-80.5 -120.5t-116.5 -84t-138.5 -64l-145 -54 t-138.5 -61t-116.5 -77.5t-80.5 -111t-30 -154.5v-60h870v-100h-981z" />
<glyph unicode="3" horiz-adv-x="1214" d="M41 289l100 51q67 -124 204 -193t278 -69q213 0 318.5 86.5t105.5 218.5q0 121 -121 212t-330 91h-231v100h231q203 0 313.5 83t110.5 204q0 125 -102.5 204t-305.5 79q-292 0 -401 -223l-90 53q65 126 192 199t299 73q245 0 379.5 -108.5t134.5 -276.5 q0 -118 -78.5 -207t-201.5 -127q133 -32 220 -127.5t87 -224.5q0 -86 -33 -159.5t-96.5 -130.5t-166.5 -89.5t-234 -32.5q-196 0 -350 90t-232 224z" />
<glyph unicode="4" horiz-adv-x="1198" d="M20 324v94l732 1016h118l-723 -1010h719v586h111v-586h180v-100h-180v-324h-111v324h-846z" />
<glyph unicode="5" horiz-adv-x="1200" d="M41 289l98 49q63 -124 192.5 -192t270.5 -68q104 0 187.5 30t135.5 81t79.5 115.5t27.5 137.5q0 194 -115 291.5t-305 97.5q-192 0 -368 -135l-84 13l61 725h844v-101h-758l-45 -512q189 113 359 113q148 0 264 -56t185 -168.5t69 -265.5q0 -90 -34 -173t-98.5 -149.5 t-169.5 -106.5t-235 -40q-196 0 -343.5 90t-217.5 224z" />
<glyph unicode="6" horiz-adv-x="1265" d="M61 698q0 156 43.5 291.5t128.5 241t222 166.5t311 61q144 0 266 -39l-35 -100q-129 37 -229 37q-134 0 -241.5 -39.5t-174.5 -104t-110.5 -151.5t-59.5 -178t-12 -187q67 118 195 186t282 68q121 0 221.5 -30t176 -89t117.5 -153.5t42 -216.5q0 -209 -153 -347.5 t-402 -138.5q-134 0 -237.5 40t-169 106t-107 161t-58 196t-16.5 220zM201 465q0 -173 122.5 -280t325.5 -107q201 0 325 99.5t124 285.5q0 187 -124.5 286t-326.5 99q-199 0 -322.5 -106t-123.5 -277z" />
<glyph unicode="7" horiz-adv-x="1126" d="M82 1331v103h1024v-97l-764 -1337h-121l776 1331h-915z" />
<glyph unicode="8" horiz-adv-x="1277" d="M82 387q0 128 87 223t220 127q-123 38 -201.5 128t-78.5 208q0 166 141.5 275.5t388.5 109.5t388.5 -109.5t141.5 -275.5q0 -118 -78.5 -208t-201.5 -128q133 -32 220 -127t87 -223q0 -176 -148.5 -294t-408.5 -118t-408.5 118t-148.5 294zM195 383q0 -131 115 -221 t329 -90t329 90t115 221q0 58 -28.5 112.5t-82 100t-140.5 73t-193 27.5t-193 -27.5t-140.5 -73t-82 -100t-28.5 -112.5zM221 1073q0 -121 107.5 -203t310.5 -82t310.5 82t107.5 203q0 125 -107 207t-311 82t-311 -82t-107 -207z" />
<glyph unicode="9" horiz-adv-x="1265" d="M61 973q0 209 153 347t402 138q134 0 237.5 -40t169 -106t107 -161t58 -196t16.5 -220q0 -156 -43.5 -291.5t-128 -241t-221.5 -166.5t-311 -61q-145 0 -267 39l35 101q130 -37 230 -37q134 0 241.5 39.5t174.5 104t110.5 151.5t59.5 177.5t12 186.5 q-67 -118 -195.5 -186t-282.5 -68q-121 0 -221.5 30t-176 89t-117.5 154t-42 217zM168 971q0 -187 124 -286t326 -99q199 0 323 106.5t124 276.5q0 173 -123 280t-326 107q-201 0 -324.5 -99.5t-123.5 -285.5z" />
<glyph unicode=":" horiz-adv-x="366" d="M61 55q0 38 24.5 59t57.5 21q32 0 56 -21.5t24 -58.5t-24 -58.5t-56 -21.5q-33 0 -57.5 21t-24.5 59zM61 954q0 38 24.5 59t57.5 21q32 0 56 -21.5t24 -58.5t-24 -58.5t-56 -21.5q-33 0 -57.5 21t-24.5 59z" />
<glyph unicode=";" horiz-adv-x="473" d="M61 -385h111l123 524h-111zM168 954q0 38 24.5 59t57.5 21q32 0 56 -21.5t24 -58.5t-24 -58.5t-56 -21.5q-33 0 -57.5 21t-24.5 59z" />
<glyph unicode="&#x3c;" horiz-adv-x="1198" d="M123 657v62l952 422v-113l-803 -340l803 -340v-112z" />
<glyph unicode="=" horiz-adv-x="1198" d="M123 418v100h952v-100h-952zM123 868v101h952v-101h-952z" />
<glyph unicode="&#x3e;" horiz-adv-x="1198" d="M123 236v112l803 340l-803 340v113l952 -422v-62z" />
<glyph unicode="?" horiz-adv-x="1167" d="M102 1225q73 108 189 170.5t270 62.5q88 0 167 -21t147 -64.5t108.5 -120.5t40.5 -179q0 -91 -26.5 -159t-69 -108t-93.5 -70.5t-102.5 -57.5t-94 -58t-69 -82t-26.5 -120v-129h-105v129q0 87 26.5 150.5t69 100t94 64.5t103 55t94 60t69 89.5t26.5 135.5q0 64 -22.5 115 t-58.5 82.5t-84.5 52.5t-96 29t-97.5 8q-123 0 -215.5 -51t-167.5 -156zM410 55q0 38 24.5 59t57.5 21q32 0 55.5 -21t23.5 -59t-23.5 -59t-55.5 -21q-33 0 -57.5 21t-24.5 59z" />
<glyph unicode="@" horiz-adv-x="1613" d="M102 338q0 338 191.5 539.5t513.5 201.5q212 0 372.5 -89.5t246 -248t85.5 -362.5q0 -211 -87 -328t-214 -117q-73 0 -116 31t-72 92q-40 -35 -56 -47.5t-51 -35.5t-69.5 -31.5t-77.5 -8.5q-42 0 -82.5 12t-82 43t-72.5 76.5t-50.5 119t-19.5 165.5t22 166.5t56.5 120.5 t79.5 76.5t88 42.5t86 12q65 0 125.5 -15t95 -31t92.5 -48v-490q0 -74 26 -117.5t82 -43.5q66 0 112.5 54t66.5 132t20 170q0 174 -73.5 311t-212 216t-320.5 79q-278 0 -442 -177t-164 -470t166.5 -470t445.5 -177q262 0 453 112l39 -84q-214 -122 -498 -122 q-322 0 -513.5 201.5t-191.5 539.5zM563 350q0 -79 22 -144t56 -103.5t71 -59t70 -20.5q66 0 123.5 42.5t100.5 100.5v457q-105 55 -209 55q-28 0 -58 -10.5t-62 -35t-57 -61t-41 -94t-16 -127.5z" />
<glyph unicode="A" horiz-adv-x="1427" d="M31 0l622 1434h121l623 -1434h-119l-150 352h-829l-149 -352h-119zM342 453h743l-372 874z" />
<glyph unicode="B" horiz-adv-x="1288" d="M160 0v1434h547q93 0 173 -23.5t142.5 -70t98.5 -123t36 -175.5q0 -110 -61 -192.5t-168 -116.5q131 -31 204.5 -130t73.5 -228q0 -86 -26.5 -152t-70.5 -107.5t-107.5 -68t-130 -37t-144.5 -10.5h-567zM270 106h457q371 0 371 271q-1 81 -32 141.5t-86.5 96t-125.5 52.5 t-154 17h-430v-578zM270 784h424q359 0 359 258q0 100 -50.5 169t-126.5 98.5t-169 29.5h-437v-555z" />
<glyph unicode="C" horiz-adv-x="1445" d="M100 713q0 116 29 224.5t89.5 203.5t146.5 165.5t207.5 111t265.5 40.5q147 0 284.5 -51.5t241.5 -155.5l-74 -75q-89 89 -207.5 134.5t-244.5 45.5q-152 0 -274 -52t-199 -141t-117.5 -204t-40.5 -246q0 -128 41 -241.5t118.5 -202t199 -140t272.5 -51.5 q124 0 240.5 46.5t207.5 135.5l72 -70q-105 -105 -240.5 -160t-279.5 -55q-141 0 -261.5 39.5t-207 109t-148 162.5t-91.5 201.5t-30 225.5z" />
<glyph unicode="D" horiz-adv-x="1472" d="M160 0v1434h485q142 0 261.5 -37.5t204.5 -103t144.5 -154.5t88 -191.5t28.5 -214.5q0 -118 -27 -224.5t-85 -200t-142 -161.5t-205 -107.5t-268 -39.5h-485zM270 106h375q127 0 232.5 36t177.5 96.5t121 141.5q48 81 70 170q20 81 20 167v16q-2 92 -26 177t-73.5 162 t-121 133.5t-174.5 90t-226 33.5h-375v-1223z" />
<glyph unicode="E" horiz-adv-x="1228" d="M160 0v1434h927v-105h-819v-557h781v-100h-781v-566h838v-106h-946z" />
<glyph unicode="F" horiz-adv-x="1144" d="M160 -2v1436h903v-111h-793v-571h764v-105h-764v-649h-110z" />
<glyph unicode="G" horiz-adv-x="1540" d="M100 713q0 221 94 391t262 262t384 92q150 0 286.5 -61t216.5 -154l-71 -74q-76 83 -190 135t-242 52q-123 0 -227 -35t-178 -95t-126 -141.5t-77 -175t-25 -194.5q0 -102 25.5 -196t77.5 -174.5t126 -139.5t178 -93t226 -34q252 0 436 153v418h-500v101h604v-576 q-91 -79 -236 -139t-304 -60q-142 0 -263.5 39t-208 108t-148 162.5t-91 202t-29.5 226.5z" />
<glyph unicode="H" horiz-adv-x="1474" d="M160 0v1434h110v-666h934v666h111v-1434h-111v668h-934v-668h-110z" />
<glyph unicode="I" horiz-adv-x="430" d="M160 0v1434h110v-1434h-110z" />
<glyph unicode="J" horiz-adv-x="1271" d="M61 541h111q0 -208 110 -335.5t304 -127.5q198 0 306.5 120.5t108.5 342.5v792h-546v101h657v-893q0 -266 -137 -416t-389 -150q-242 0 -383.5 156t-141.5 410z" />
<glyph unicode="K" horiz-adv-x="1206" d="M160 0v1434h110v-789l697 789h133l-553 -625l639 -809h-139l-578 721l-199 -225v-496h-110z" />
<glyph unicode="L" horiz-adv-x="1077" d="M160 0v1434h110v-1334h746v-100h-856z" />
<glyph unicode="M" horiz-adv-x="1642" d="M160 0v1434h110l551 -875l545 875h117v-1434h-111v1235l-502 -801h-98l-502 801v-1235h-110z" />
<glyph unicode="N" horiz-adv-x="1439" d="M160 0v1434h96l913 -1241v1241h111v-1434h-96l-914 1241v-1241h-110z" />
<glyph unicode="O" horiz-adv-x="1646" d="M100 719q0 117 28.5 224.5t87.5 201t143.5 163t203.5 109t260 39.5q175 0 315.5 -61t228 -165t133.5 -235.5t46 -279.5q0 -114 -28.5 -221.5t-88 -202t-143.5 -164.5t-203.5 -111t-259.5 -41t-259.5 41t-203.5 112t-143.5 165.5t-88 202.5t-28.5 223zM209 717 q0 -98 24 -190.5t75 -174t122.5 -142.5t172.5 -96.5t220 -35.5t221 35.5t174 96.5t122.5 142.5t75 174t24.5 190.5q0 127 -39.5 240t-114 202.5t-194 142t-269.5 52.5t-269 -51.5t-193 -140.5t-113 -202.5t-39 -242.5z" />
<glyph unicode="P" horiz-adv-x="1265" d="M131 0v1434h588q113 0 203.5 -40t146.5 -106.5t85.5 -149.5t29.5 -173q0 -89 -29.5 -171.5t-85.5 -150t-147 -107.5t-203 -40h-477v-496h-111zM242 596h477q70 0 129 20.5t101 56t71 83t43 100.5t14 109q0 70 -22.5 134.5t-65.5 116.5t-113 83.5t-157 31.5h-477v-735z " />
<glyph unicode="Q" horiz-adv-x="1646" d="M100 719q0 117 28.5 224.5t87.5 201t143.5 163t203.5 109t260 39.5q175 0 315.5 -61t228 -165t133.5 -235.5t46 -279.5q0 -209 -94.5 -387.5t-271.5 -270.5l211 -393l-93 -51l-217 403q-115 -41 -258 -41q-140 0 -259.5 41t-203.5 112t-143.5 165.5t-88 202.5t-28.5 223z M209 717q0 -98 24 -190.5t75 -174t122.5 -142.5t172.5 -96.5t220 -35.5q111 0 209 31l-246 456l93 51l249 -466q151 82 231.5 235.5t80.5 331.5q0 127 -39.5 240t-114 202.5t-194 142t-269.5 52.5t-269 -51.5t-193 -140.5t-113 -202.5t-39 -242.5z" />
<glyph unicode="R" horiz-adv-x="1329" d="M133 0v1434h631q112 0 203.5 -38t148.5 -102t87.5 -143t31.5 -164v-6q-1 -86 -29 -161q-30 -78 -85.5 -139t-146 -96.5t-204.5 -35.5l506 -549h-146l-495 543h-391v-543h-111zM244 647h508q181 0 270.5 92t91.5 250v6q0 62 -21 119q-22 60 -63.5 109t-110.5 78.5 t-155 29.5h-520v-684z" />
<glyph unicode="S" horiz-adv-x="1298" d="M72 289l98 49q63 -124 207 -192t301 -68q83 0 157.5 15.5t139 47.5t103 90t38.5 134q1 67 -32 116.5t-89 79.5t-129 52.5t-153.5 40t-161 36.5t-154 48t-129.5 68.5t-89.5 104.5t-33.5 150v11q1 81 29 146q30 70 80 114t118.5 73t138 41t144.5 12q172 0 309.5 -63 t204.5 -181l-82 -61q-72 101 -184.5 152t-247.5 51q-54 0 -106.5 -8t-106.5 -29.5t-94.5 -53.5t-66 -84t-25.5 -118q0 -61 27 -107.5t74 -75.5t109 -52.5t132 -38t143.5 -33.5t143.5 -36.5t132 -48.5t109 -69.5t74 -99t27 -137.5q0 -102 -47 -179.5t-126.5 -122t-174 -66.5 t-201.5 -22q-93 0 -181.5 18.5t-170 56t-148 98.5t-106.5 141z" />
<glyph unicode="T" horiz-adv-x="1245" d="M49 1333v101h1147v-101h-518v-1333h-111v1333h-518z" />
<glyph unicode="U" horiz-adv-x="1417" d="M160 502v932h110v-932q0 -89 24.5 -161.5t66 -120.5t98.5 -80.5t119.5 -47t130.5 -14.5q86 0 161.5 24t139 72.5t100.5 132.5t37 195v932h110v-932q0 -109 -31 -198.5t-83 -149.5t-123 -101t-149 -59.5t-162 -18.5t-162 18.5t-149 59.5t-123.5 101t-83.5 149.5t-31 198.5 z" />
<glyph unicode="V" horiz-adv-x="1380" d="M41 1434h119l530 -1307l531 1307h118l-589 -1434h-119z" />
<glyph unicode="W" horiz-adv-x="2164" d="M51 1434h117l442 -1307l420 1307h103l417 -1307l445 1307h119l-506 -1434h-119l-408 1270l-409 -1270h-119z" />
<glyph unicode="X" horiz-adv-x="1310" d="M61 0l527 735l-488 699h121l434 -615l437 615h118l-487 -699l526 -735h-131l-463 655l-462 -655h-132z" />
<glyph unicode="Y" horiz-adv-x="1308" d="M39 1434h129l485 -734l488 734h129l-561 -840v-594h-111v594z" />
<glyph unicode="Z" horiz-adv-x="1406" d="M160 0v90l954 1243h-905v101h1038v-91l-954 -1243h954v-100h-1087z" />
<glyph unicode="[" horiz-adv-x="442" d="M123 -348v2128h309v-99h-203v-1931h203v-98h-309z" />
<glyph unicode="\" horiz-adv-x="864" d="M0 1554h100l764 -1722h-98z" />
<glyph unicode="]" horiz-adv-x="442" d="M10 -250h203v1931h-203v99h309v-2128h-309v98z" />
<glyph unicode="^" horiz-adv-x="1077" d="M41 625l457 809h82l456 -809h-106l-391 700l-392 -700h-106z" />
<glyph unicode="_" horiz-adv-x="1265" d="M0 -53h1266v-94h-1266v94z" />
<glyph unicode="`" horiz-adv-x="1024" d="M336 1526h133l219 -344h-98z" />
<glyph unicode="a" d="M92 506q0 151 69.5 272.5t186.5 188.5t258 67q126 0 239 -52.5t175 -145.5v174h100v-1010h-100v170q-155 -195 -414 -195q-105 0 -199.5 40t-164 109.5t-110 169t-40.5 212.5zM193 506q0 -188 119.5 -310t293.5 -122q102 0 184.5 37t133 99t77.5 138t27 158q0 81 -27 157 t-77.5 138t-133 99.5t-184.5 37.5q-174 0 -293.5 -122t-119.5 -310z" />
<glyph unicode="b" d="M131 0v1434h100v-631q62 109 175 170t245 61q143 0 257 -61.5t182.5 -183t68.5 -283.5q0 -245 -143.5 -388t-362.5 -143q-138 0 -247.5 64t-174.5 174v-213h-100zM233 508q0 -189 119.5 -315.5t298.5 -126.5q177 0 293.5 118t116.5 322q0 206 -118 322t-296 116 q-176 0 -295 -124t-119 -312z" />
<glyph unicode="c" horiz-adv-x="1062" d="M92 506q0 156 69 277.5t187 186t264 64.5q100 0 192.5 -30t156.5 -84l-66 -76q-44 41 -121 68.5t-162 27.5q-116 0 -211 -51t-153 -151t-58 -232q0 -198 122 -317t300 -119q83 0 161.5 32t139.5 93l68 -68q-75 -75 -171 -113.5t-198 -38.5q-142 0 -260.5 65.5t-189 187.5 t-70.5 278z" />
<glyph unicode="d" horiz-adv-x="1249" d="M92 506q0 162 68.5 283.5t182.5 183t257 61.5q134 0 247 -56t173 -159v615h98v-1434h-98v205q-53 -97 -167 -163.5t-255 -66.5q-219 0 -362.5 143t-143.5 388zM193 506q0 -204 117 -322t294 -118q178 0 296 126.5t118 315.5q0 188 -119 312t-295 124q-178 0 -294.5 -116 t-116.5 -322z" />
<glyph unicode="e" horiz-adv-x="1161" d="M92 506q0 228 140.5 378t353.5 150q109 0 200.5 -35t159.5 -103q69 -70 101 -182q22 -78 22 -171q0 -41 -4 -84h-870q15 -174 132.5 -279.5t278.5 -105.5q105 0 207.5 40.5t157.5 112.5l63 -63q-71 -93 -185.5 -141t-242.5 -48q-106 0 -200.5 38t-163.5 106t-109.5 168.5 t-40.5 218.5zM195 547h780q0 187 -103 291t-286 104q-159 0 -266.5 -106t-124.5 -289z" />
<glyph unicode="f" horiz-adv-x="604" d="M131 0v1112q0 161 87.5 253.5t277.5 92.5q140 0 262 -69l-49 -74q-71 29 -114.5 41t-102.5 12q-126 0 -193.5 -63.5t-67.5 -192.5v-102h332v-84h-332v-926h-100z" />
<glyph unicode="g" d="M92 506q0 240 143.5 384t366.5 144q148 0 258.5 -67.5t157.5 -161.5v205h102v-1016q0 -99 -38.5 -177.5t-106 -127t-155 -74t-189.5 -25.5q-143 0 -260.5 56.5t-184.5 136.5l68 76q50 -68 154.5 -123t222.5 -55q78 0 146.5 19t123.5 56.5t87 98.5t32 139v225 q-64 -116 -174 -180t-240 -64q-107 0 -200.5 35.5t-163.5 102t-110 168t-40 225.5zM190 506q0 -206 118.5 -323t297.5 -117q173 0 289.5 126t116.5 312q0 187 -115 313.5t-291 126.5q-179 0 -297.5 -116t-118.5 -322z" />
<glyph unicode="h" horiz-adv-x="1146" d="M131 0v1434h100v-600q134 200 361 200q206 0 315 -124.5t109 -329.5v-580h-101v580q0 165 -80 261.5t-243 96.5q-157 0 -256.5 -111t-99.5 -272v-555h-105z" />
<glyph unicode="i" horiz-adv-x="362" d="M100 1378q0 38 24.5 59t57.5 21q32 0 56 -21.5t24 -58.5t-24 -58.5t-56 -21.5q-33 0 -57.5 21t-24.5 59zM131 0v1010h100v-1010h-100z" />
<glyph unicode="j" horiz-adv-x="385" d="M-221 -360l28 86q78 -45 154 -45q45 0 77.5 14t50.5 36t28 57.5t13 68.5t3 80v1073h100v-1073v-13q0 -71 -11 -124q-11 -59 -39.5 -108.5t-84 -75.5t-137.5 -26q-90 0 -182 50zM100 1378q0 38 24.5 59t57.5 21q32 0 56 -21.5t24 -58.5t-24 -58.5t-56 -21.5 q-33 0 -57.5 21t-24.5 59z" />
<glyph unicode="k" horiz-adv-x="915" d="M131 0v1434h100v-910l476 486h133l-400 -398l459 -612h-127l-403 541l-138 -138v-403h-100z" />
<glyph unicode="l" horiz-adv-x="362" d="M131 0v1434h100v-1434h-100z" />
<glyph unicode="m" horiz-adv-x="1861" d="M131 0v1010h100v-166q50 96 136.5 143t189.5 47q126 0 229.5 -62.5t145.5 -189.5q44 120 148 186t227 66q186 0 305 -119.5t119 -308.5v-606h-101v606q0 147 -89.5 240.5t-233.5 93.5t-235 -96.5t-91 -243.5v-600h-100v600q0 147 -91 243.5t-235 96.5q-143 0 -233.5 -96 t-90.5 -244v-600h-100z" />
<glyph unicode="n" horiz-adv-x="1177" d="M131 0v1010h100v-179q56 100 151.5 150.5t207.5 52.5q205 0 331 -121t126 -329v-584h-101v582q0 170 -97 263q-95 91 -256 91h-7q-155 -1 -255 -108t-100 -265v-563h-100z" />
<glyph unicode="o" horiz-adv-x="1212" d="M92 504q0 157 69 279t185.5 186.5t259.5 64.5t259.5 -64.5t185.5 -186.5t69 -279q0 -118 -40.5 -218t-109.5 -167.5t-163.5 -105.5t-200.5 -38t-200.5 38t-163.5 105.5t-109.5 167.5t-40.5 218zM190 504q0 -193 120.5 -315.5t295.5 -122.5t295.5 122.5t120.5 315.5 t-120.5 316.5t-295.5 123.5t-295.5 -123.5t-120.5 -316.5z" />
<glyph unicode="p" d="M131 -385v1395h98v-224q153 248 420 248q225 0 367.5 -143.5t142.5 -384.5q0 -124 -40 -225.5t-110 -168t-163.5 -102t-200.5 -35.5q-139 0 -248.5 64t-169.5 172v-596h-96zM236 504q0 -186 118 -312t291 -126q86 0 161 29t131.5 83.5t89 139t32.5 188.5 q0 206 -117.5 322t-296.5 116q-176 0 -292.5 -126.5t-116.5 -313.5z" />
<glyph unicode="q" d="M92 506q0 237 139.5 378.5t352.5 149.5q84 0 159 -21.5t128.5 -57.5t91 -76t59.5 -82v213h98v-1395h-96v604q-64 -116 -175.5 -180t-242.5 -64q-107 0 -200.5 35.5t-163.5 102t-110 168t-40 225.5zM193 506q0 -206 116.5 -320t296.5 -114q174 0 292 123.5t118 308.5 q0 186 -116.5 310t-293.5 124q-180 0 -296.5 -113t-116.5 -319z" />
<glyph unicode="r" horiz-adv-x="823" d="M131 0v1010h100v-179q57 100 145.5 151.5t188.5 51.5h10q108 0 207 -59l-45 -82q-82 51 -172 51q-92 -1 -169.5 -51t-121 -131t-43.5 -172v-590h-100z" />
<glyph unicode="s" horiz-adv-x="1021" d="M82 186l74 66q61 -88 163 -137t207 -49q135 0 225.5 55.5t90.5 150.5q0 52 -40 88.5t-103.5 57t-141 37t-154.5 37.5t-140.5 49.5t-103.5 80t-40 123.5t33.5 128.5t90.5 91t127.5 52t149.5 17.5q227 0 377 -141l-61 -66q-73 64 -149.5 90.5t-166.5 26.5h-9 q-121 0 -207 -51q-90 -53 -89 -145q0 -50 40 -85.5t104 -55.5t141.5 -36.5t154.5 -38t141 -50.5t104 -82t40 -126q0 -93 -57 -162t-150.5 -103t-208.5 -34q-137 0 -257 56t-185 155z" />
<glyph unicode="t" horiz-adv-x="667" d="M131 301v1022h100v-313h342v-88h-342v-621q0 -58 6 -95.5t23 -72t54 -51t94 -16.5q49 0 83 10t80 33l35 -82q-106 -52 -198 -52q-153 0 -215 83t-62 243z" />
<glyph unicode="u" horiz-adv-x="1155" d="M131 422v588h100v-586q0 -176 90.5 -267t256.5 -91t256 91t90 267v586h100v-588q0 -211 -117 -329t-329 -118t-329.5 118t-117.5 329z" />
<glyph unicode="v" horiz-adv-x="1040" d="M41 1010h111l374 -893l365 893h108l-424 -1010h-110z" />
<glyph unicode="w" horiz-adv-x="1566" d="M25 1010h110l305 -893l310 893h71l307 -893l304 893h110l-358 -1010h-111l-287 836l-290 -836h-111z" />
<glyph unicode="x" horiz-adv-x="983" d="M41 0l391 524l-362 488h120l302 -414l301 414h120l-362 -488l391 -524h-119l-331 453l-332 -453h-119z" />
<glyph unicode="y" horiz-adv-x="1177" d="M131 467v543h100v-541q0 -180 78.5 -269t241.5 -89q159 0 277 110.5t118 265.5v523h101v-1016q0 -197 -126 -300.5t-335 -103.5q-143 0 -260.5 56.5t-184.5 136.5l68 76q50 -68 154.5 -123t222.5 -55q104 0 183.5 32.5t128 104.5t48.5 176v242q-56 -99 -171 -157.5 t-228 -58.5q-201 0 -308.5 117.5t-107.5 329.5z" />
<glyph unicode="z" horiz-adv-x="978" d="M92 0v80l666 842h-633v88h747v-86l-665 -840h680v-84h-795z" />
<glyph unicode="{" horiz-adv-x="595" d="M61 680v82q162 0 162 242v464q0 51 4 89.5t13 72t25 56t39.5 39t56.5 23.5t76 7t98 -8v-78q-131 23 -176.5 -19.5t-45.5 -181.5v-464q0 -41 -1.5 -69t-9.5 -67t-23 -64.5t-43.5 -49t-69.5 -33.5q41 -10 69.5 -33.5t43.5 -49t23 -64.5t9.5 -67t1.5 -69v-465 q0 -139 45.5 -181t176.5 -19v-78q-55 -8 -98 -8t-76 7t-56.5 23t-39.5 38.5t-25 56t-13 72t-4 89.5v465q0 242 -162 242z" />
<glyph unicode="|" horiz-adv-x="479" d="M184 -512v2048h111v-2048h-111z" />
<glyph unicode="}" horiz-adv-x="595" d="M61 -227q131 -23 176.5 19t45.5 181v465q0 41 1.5 69t9.5 67t23 64.5t43.5 49t69.5 33.5q-41 10 -69.5 33.5t-43.5 49t-23 64.5t-9.5 67t-1.5 69v464q0 139 -45.5 181.5t-176.5 19.5v78q55 8 98 8t76 -7t56.5 -23.5t39.5 -39t25 -56t13 -72t4 -89.5v-464q0 -242 162 -242 v-82q-162 0 -162 -242v-465q0 -51 -4 -89.5t-13 -72t-25 -56t-39.5 -38.5t-56.5 -23t-76 -7t-98 8v78z" />
<glyph unicode="~" horiz-adv-x="1130" d="M61 573q91 211 275 211q58 0 128.5 -25t126 -54.5t122 -54.5t116.5 -25q51 0 85.5 30.5t60.5 102.5l94 -33q-38 -101 -96.5 -152t-147.5 -51q-61 0 -130.5 25t-122 55t-118 55t-118.5 25q-119 0 -180 -141z" />
<glyph unicode="&#xa1;" horiz-adv-x="407" d="M123 954q0 37 24 58.5t56 21.5q33 0 57.5 -21t24.5 -59t-24.5 -59t-57.5 -21q-32 0 -56 21.5t-24 58.5zM152 -424v1145h104v-1145h-104z" />
<glyph unicode="&#xa2;" horiz-adv-x="1052" d="M92 725q0 219 128 361t329 163v185h98v-181q194 -13 314 -114l-66 -76q-44 41 -121 68.5t-162 27.5q-116 0 -211 -51t-153 -151t-58 -232q0 -198 122 -317t300 -119q83 0 161.5 32t139.5 93l68 -68q-139 -139 -334 -149v-197h-98v199q-197 22 -327 166t-130 360z" />
<glyph unicode="&#xa3;" horiz-adv-x="1179" d="M102 631v88h152q-4 17 -15 68t-15 73t-11 59.5t-9.5 65.5t-2.5 53q0 102 31.5 183.5t87 132.5t128 77.5t156.5 26.5q160 0 276 -79t146 -183l-92 -57q-78 217 -330 217q-136 0 -216.5 -82.5t-80.5 -235.5q0 -30 5.5 -71t12 -73.5t18 -87.5t17.5 -87h463v-88h-446 q14 -93 14 -162q0 -241 -162 -371h848v-98h-973v92q99 84 140 174t41 201q0 61 -15 164h-168z" />
<glyph unicode="&#xa5;" horiz-adv-x="1189" d="M61 1434h115l418 -676l420 676h114l-440 -693h283v-84h-324v-190h324v-84h-324v-383h-108v383h-320v84h320v190h-320v84h279z" />
<glyph unicode="&#xa6;" horiz-adv-x="479" d="M184 307h111v-819h-111v819zM184 717v819h111v-819h-111z" />
<glyph unicode="&#xa7;" horiz-adv-x="1140" d="M123 827q0 149 92 234q-8 46 -8 69q0 69 21 126t55.5 93.5t81 61.5t95 36t99.5 11q113 0 220 -49.5t171 -138.5l-71 -70q-54 72 -143 116t-181 44q-100 0 -170 -56.5t-70 -160.5q0 -62 39 -115t101 -91.5t136.5 -74.5t149.5 -75t137 -83t101 -106.5t39 -138.5 q0 -143 -94 -234q10 -38 10 -69q0 -86 -33 -152.5t-89.5 -105.5t-125 -58.5t-145.5 -19.5q-113 0 -220 49.5t-171 138.5l71 70q54 -72 143 -116t181 -44q74 0 135.5 22.5t103 74.5t41.5 126q0 48 -24 90t-64.5 74t-93.5 61.5t-111 57.5t-116 56.5t-111 63.5t-93.5 74.5 t-64.5 93t-24 115.5zM231 840q0 -71 49.5 -129t128.5 -101.5t163 -83t169 -92t131 -110.5q37 53 37 120q0 70 -50 127t-130 100t-165 82.5t-170 93.5t-130 114q-33 -51 -33 -121z" />
<glyph unicode="&#xa8;" horiz-adv-x="1024" d="M233 1348q0 38 24.5 58.5t57.5 20.5q32 0 56 -21t24 -58t-24 -58.5t-56 -21.5q-33 0 -57.5 21t-24.5 59zM629 1348q0 38 24.5 58.5t57.5 20.5q32 0 56 -21t24 -58t-24 -58.5t-56 -21.5q-33 0 -57.5 21t-24.5 59z" />
<glyph unicode="&#xa9;" horiz-adv-x="1683" d="M102 713q0 154 49.5 288.5t141.5 236.5t233.5 161t315.5 59q139 0 258 -38t206.5 -106.5t150 -162t93.5 -204.5t31 -234q0 -153 -49.5 -286.5t-141.5 -234.5t-233.5 -159t-314.5 -58q-174 0 -315.5 58t-233.5 159t-141.5 234.5t-49.5 286.5zM209 713q0 -184 72.5 -326.5 t217.5 -225.5t343 -83t343 83t217.5 225.5t72.5 326.5q0 138 -42.5 255.5t-121.5 203.5t-199.5 135t-269.5 49t-269.5 -49t-199.5 -135t-121.5 -203.5t-42.5 -255.5zM436 713q0 182 118.5 297.5t291.5 115.5q79 0 156 -28t131 -74l-74 -80q-36 34 -91.5 58t-121.5 24 q-124 0 -213.5 -88t-89.5 -225t89.5 -226.5t213.5 -89.5q130 0 223 101l80 -68q-59 -65 -139 -99t-164 -34q-170 0 -290 116.5t-120 299.5z" />
<glyph unicode="&#xab;" horiz-adv-x="921" d="M61 588l349 497l82 -49l-318 -448l318 -449l-82 -49zM389 588l348 497l82 -49l-317 -448l317 -449l-82 -49z" />
<glyph unicode="&#xac;" horiz-adv-x="1198" d="M123 643v100h952v-426h-102v326h-850z" />
<glyph unicode="&#xad;" horiz-adv-x="1228" d="M102 637v100h717v-100h-717z" />
<glyph unicode="&#xae;" horiz-adv-x="737" d="M61 1149q0 131 82.5 220t225.5 89t225 -88.5t82 -220.5t-82 -219.5t-225 -87.5t-225.5 87.5t-82.5 219.5zM131 1149q0 -106 63 -173t175 -67t174.5 67t62.5 173t-62.5 174t-174.5 68t-175 -68t-63 -174zM258 1016v287h127q46 0 74 -30.5t28 -66.5q0 -29 -16.5 -53.5 t-44.5 -34.5l66 -102h-76l-51 92h-48v-92h-59zM317 1167h62q41 0 41 39t-41 39h-62v-78z" />
<glyph unicode="&#xaf;" horiz-adv-x="1024" d="M246 1311v102h532v-102h-532z" />
<glyph unicode="&#xb0;" horiz-adv-x="708" d="M102 1227q0 93 67 162t185 69t185 -69t67 -162t-67 -162.5t-185 -69.5t-185 69.5t-67 162.5zM193 1227q0 -63 43 -106.5t118 -43.5t118.5 43.5t43.5 106.5t-43.5 106t-118.5 43t-118 -43t-43 -106z" />
<glyph unicode="&#xb1;" horiz-adv-x="1062" d="M123 0v100h952v-100h-952zM123 807v100h426v426h100v-426h426v-100h-426v-426h-100v426h-426z" />
<glyph unicode="&#xb2;" horiz-adv-x="684" d="M82 1333q109 125 278 125q113 0 188 -63.5t75 -157.5q0 -72 -24.5 -121t-63 -73t-86 -39.5t-94.5 -27.5t-85.5 -29.5t-63 -53.5t-24.5 -92v-8h436v-93h-532v80q0 85 24.5 141t63.5 81.5t86 40t94 24t86 24.5t63.5 51t24.5 95q0 55 -47.5 92t-120.5 37q-65 0 -121 -31.5 t-92 -74.5z" />
<glyph unicode="&#xb3;" horiz-adv-x="694" d="M61 793l48 88q42 -51 106 -82t131 -31q92 0 142.5 35t50.5 90q0 50 -55 90.5t-150 40.5h-137v90h137q91 0 140.5 36.5t49.5 86.5q0 56 -41 92.5t-131 36.5q-118 0 -207 -106l-65 73q109 125 272 125q127 0 196.5 -64.5t69.5 -156.5q0 -50 -28.5 -93t-75.5 -71 q53 -27 86 -74t33 -104q0 -95 -75.5 -157t-211.5 -62q-159 0 -285 117z" />
<glyph unicode="&#xb4;" horiz-adv-x="1024" d="M336 1182l219 344h133l-254 -344h-98z" />
<glyph unicode="&#xb5;" horiz-adv-x="1077" d="M123 -385v1395h100v-586q0 -178 80 -268t236 -90t235.5 90t79.5 268v586h100v-588q0 -213 -107 -330t-308 -117q-209 0 -316 125v-485h-100z" />
<glyph unicode="&#xb6;" horiz-adv-x="1220" d="M61 971q0 233 115 348t361 115h602v-1643h-115v1528h-225v-1528h-119v731q-46 -6 -119 -6q-77 0 -147.5 14.5t-135.5 49t-112.5 86t-76 129.5t-28.5 176z" />
<glyph unicode="&#xb7;" horiz-adv-x="366" d="M61 731q0 38 24.5 59t57.5 21q32 0 56 -21.5t24 -58.5t-24 -58.5t-56 -21.5q-33 0 -57.5 21t-24.5 59z" />
<glyph unicode="&#xb8;" horiz-adv-x="1024" d="M305 -410l47 74q67 -67 150 -67q62 0 97.5 30t35.5 70t-33.5 69t-93.5 29q-37 0 -70 -8l-12 10l78 248h80l-54 -174q89 0 140 -50t51 -118q0 -74 -57.5 -128t-161.5 -54q-59 0 -113.5 21t-83.5 48z" />
<glyph unicode="&#xb9;" horiz-adv-x="321" d="M20 1343v91h220v-734h-97v643h-123z" />
<glyph unicode="&#xbb;" horiz-adv-x="921" d="M102 139l318 449l-318 448l82 49l348 -497l-348 -498zM430 139l318 449l-318 448l82 49l348 -497l-348 -498z" />
<glyph unicode="&#xbc;" horiz-adv-x="1202" d="M20 1343v91h220v-734h-97v643h-123zM76 -111l811 1616h98l-809 -1616h-100zM555 141v74l346 518h117l-332 -500h268v293h97v-293h90v-92h-90v-141h-97v141h-399z" />
<glyph unicode="&#xbd;" horiz-adv-x="1361" d="M20 1343v91h220v-734h-97v643h-123zM76 -111l811 1616h98l-809 -1616h-100zM760 633q109 125 278 125q113 0 187.5 -63.5t74.5 -157.5q0 -72 -24.5 -121t-63 -73.5t-85.5 -39.5t-94 -27.5t-85.5 -30t-63 -53.5t-24.5 -92v-8h436v-92h-532v80q0 85 24.5 141t63.5 81.5 t86 40t94 24t86 24.5t63.5 51t24.5 95q0 55 -47.5 92t-120.5 37q-64 0 -120.5 -32t-92.5 -75z" />
<glyph unicode="&#xbe;" horiz-adv-x="1513" d="M61 793l48 88q42 -51 106 -82t131 -31q92 0 142.5 35t50.5 90q0 50 -55 90.5t-150 40.5h-137v90h137q91 0 140.5 36.5t49.5 86.5q0 56 -41 92.5t-131 36.5q-118 0 -207 -106l-65 73q109 125 272 125q127 0 196.5 -64.5t69.5 -156.5q0 -50 -28.5 -93t-75.5 -71 q53 -27 86 -74t33 -104q0 -95 -75.5 -157t-211.5 -62q-159 0 -285 117zM387 -111l811 1616h98l-809 -1616h-100zM866 141v74l346 518h117l-332 -500h269v293h96v-293h90v-92h-90v-141h-96v141h-400z" />
<glyph unicode="&#xbf;" horiz-adv-x="1167" d="M143 -63q0 72 16.5 129t44.5 95t64 68.5t76 52.5t80 43t76 44.5t64 52.5t44.5 72t16.5 98v129h104v-129q0 -87 -26.5 -150.5t-69 -100t-94 -64.5t-102.5 -55t-93.5 -60t-69 -89.5t-26.5 -135.5q0 -64 22.5 -115t58.5 -82.5t84 -52.5t95.5 -29t97.5 -8q123 0 215.5 51 t167.5 156l76 -72q-73 -108 -189.5 -171t-269.5 -63q-69 0 -133.5 12.5t-125.5 42t-105.5 73t-71.5 110t-27 148.5zM596 954q0 37 24 58.5t56 21.5q33 0 57.5 -21t24.5 -59t-24.5 -59t-57.5 -21q-32 0 -56 21.5t-24 58.5z" />
<glyph unicode="&#xc0;" horiz-adv-x="1427" d="M31 0l622 1434h121l623 -1434h-119l-150 352h-829l-149 -352h-119zM342 453h743l-372 874zM385 1950h133l219 -344h-98z" />
<glyph unicode="&#xc1;" horiz-adv-x="1427" d="M31 0l622 1434h121l623 -1434h-119l-150 352h-829l-149 -352h-119zM342 453h743l-372 874zM674 1606l219 344h133l-254 -344h-98z" />
<glyph unicode="&#xc2;" horiz-adv-x="1427" d="M31 0l622 1434h121l623 -1434h-119l-150 352h-829l-149 -352h-119zM342 453h743l-372 874zM424 1606l250 344h82l250 -344h-129l-162 241l-162 -241h-129z" />
<glyph unicode="&#xc3;" horiz-adv-x="1427" d="M31 0l622 1434h121l623 -1434h-119l-150 352h-829l-149 -352h-119zM342 453h743l-372 874zM420 1700q0 71 42 116.5t116 45.5q54 0 152.5 -34t121.5 -34q56 0 70 66l90 -23q-6 -66 -50.5 -103.5t-103.5 -37.5q-54 0 -150 33.5t-126 33.5q-72 0 -72 -80z" />
<glyph unicode="&#xc4;" horiz-adv-x="1427" d="M31 0l622 1434h121l623 -1434h-119l-150 352h-829l-149 -352h-119zM342 453h743l-372 874zM436 1772q0 38 24.5 58.5t57.5 20.5q32 0 56 -21t24 -58t-24 -58.5t-56 -21.5q-33 0 -57.5 21t-24.5 59zM831 1772q0 38 24.5 58.5t57.5 20.5q32 0 56 -21t24 -58t-24 -58.5 t-56 -21.5q-33 0 -57.5 21t-24.5 59z" />
<glyph unicode="&#xc5;" horiz-adv-x="1427" d="M31 0l622 1434h121l623 -1434h-119l-150 352h-829l-149 -352h-119zM342 453h743l-372 874zM539 1780q0 76 51.5 119t124.5 43t124.5 -43t51.5 -119t-51.5 -119t-124.5 -43t-124.5 43t-51.5 119zM614 1780q0 -39 27 -65.5t74 -26.5t73.5 26.5t26.5 65.5t-26.5 65.5 t-73.5 26.5t-74 -26.5t-27 -65.5z" />
<glyph unicode="&#xc6;" horiz-adv-x="1959" d="M25 0l872 1434h918v-101h-748v-561h707v-100h-707v-568h776v-104h-878v508h-512l-301 -508h-127zM512 608h453v742z" />
<glyph unicode="&#xc7;" horiz-adv-x="1445" d="M100 713q0 116 29 224.5t89.5 203.5t146.5 165.5t207.5 111t265.5 40.5q147 0 284.5 -51.5t241.5 -155.5l-74 -75q-89 89 -207.5 134.5t-244.5 45.5q-152 0 -274 -52t-199 -141t-117.5 -204t-40.5 -246q0 -128 41 -241.5t118.5 -202t199 -140t272.5 -51.5 q124 0 240.5 46.5t207.5 135.5l72 -70q-105 -105 -240.5 -160t-279.5 -55h-43l-33 -104q89 0 139.5 -50t50.5 -118q0 -74 -57.5 -128t-161.5 -54q-59 0 -113 21t-83 48l47 74q67 -67 149 -67q62 0 97.5 30t35.5 70t-33.5 69t-93.5 29q-36 0 -69 -8l-13 10l60 187 q-148 19 -267 86.5t-194.5 166.5t-115.5 220.5t-40 255.5z" />
<glyph unicode="&#xc8;" horiz-adv-x="1228" d="M160 0v1434h927v-105h-819v-557h781v-100h-781v-566h838v-106h-946zM283 1950h133l219 -344h-98z" />
<glyph unicode="&#xc9;" horiz-adv-x="1228" d="M160 0v1434h927v-105h-819v-557h781v-100h-781v-566h838v-106h-946zM571 1606l220 344h133l-254 -344h-99z" />
<glyph unicode="&#xca;" horiz-adv-x="1228" d="M160 0v1434h927v-105h-819v-557h781v-100h-781v-566h838v-106h-946zM322 1606l249 344h82l250 -344h-129l-162 241l-161 -241h-129z" />
<glyph unicode="&#xcb;" horiz-adv-x="1228" d="M160 0v1434h927v-105h-819v-557h781v-100h-781v-566h838v-106h-946zM334 1772q0 38 24.5 58.5t57.5 20.5q32 0 56 -21t24 -58t-24 -58.5t-56 -21.5q-33 0 -57.5 21t-24.5 59zM729 1772q0 38 24.5 58.5t57.5 20.5q32 0 56 -21t24 -58t-24 -58.5t-56 -21.5q-33 0 -57.5 21 t-24.5 59z" />
<glyph unicode="&#xcc;" horiz-adv-x="430" d="M-115 1950h133l220 -344h-99zM160 0v1434h110v-1434h-110z" />
<glyph unicode="&#xcd;" horiz-adv-x="430" d="M160 0v1434h110v-1434h-110zM174 1606l219 344h133l-254 -344h-98z" />
<glyph unicode="&#xce;" horiz-adv-x="430" d="M-76 1606l250 344h82l250 -344h-129l-162 241l-162 -241h-129zM160 0v1434h110v-1434h-110z" />
<glyph unicode="&#xcf;" horiz-adv-x="430" d="M-63 1772q0 38 24 58.5t57 20.5q32 0 56 -21t24 -58t-24 -58.5t-56 -21.5q-33 0 -57 21t-24 59zM160 0v1434h110v-1434h-110zM332 1772q0 38 24.5 58.5t57.5 20.5q32 0 56 -21t24 -58t-24 -58.5t-56 -21.5q-33 0 -57.5 21t-24.5 59z" />
<glyph unicode="&#xd0;" horiz-adv-x="1472" d="M-41 672v100h201v662h485q142 0 261.5 -37.5t204.5 -103t144.5 -154.5t88 -191.5t28.5 -214.5q0 -118 -27 -224.5t-85 -200t-142 -161.5t-205 -107.5t-268 -39.5h-485v672h-201zM270 106h375q127 0 232.5 36t177.5 96.5t121 141.5t70.5 170t19.5 183q-2 92 -26 177 t-73.5 162t-121 133.5t-174.5 90t-226 33.5h-375v-557h406v-100h-406v-566z" />
<glyph unicode="&#xd1;" horiz-adv-x="1439" d="M160 0v1434h96l913 -1241v1241h111v-1434h-96l-914 1241v-1241h-110zM426 1700q0 71 42 116.5t116 45.5q54 0 152.5 -34t121.5 -34q56 0 70 66l90 -23q-6 -66 -50.5 -103.5t-103.5 -37.5q-54 0 -150 33.5t-126 33.5q-72 0 -72 -80z" />
<glyph unicode="&#xd2;" horiz-adv-x="1646" d="M100 719q0 117 28.5 224.5t87.5 201t143.5 163t203.5 109t260 39.5q175 0 315.5 -61t228 -165t133.5 -235.5t46 -279.5q0 -114 -28.5 -221.5t-88 -202t-143.5 -164.5t-203.5 -111t-259.5 -41t-259.5 41t-203.5 112t-143.5 165.5t-88 202.5t-28.5 223zM209 717 q0 -98 24 -190.5t75 -174t122.5 -142.5t172.5 -96.5t220 -35.5t221 35.5t174 96.5t122.5 142.5t75 174t24.5 190.5q0 127 -39.5 240t-114 202.5t-194 142t-269.5 52.5t-269 -51.5t-193 -140.5t-113 -202.5t-39 -242.5zM494 1950h133l219 -344h-98z" />
<glyph unicode="&#xd3;" horiz-adv-x="1646" d="M100 719q0 117 28.5 224.5t87.5 201t143.5 163t203.5 109t260 39.5q175 0 315.5 -61t228 -165t133.5 -235.5t46 -279.5q0 -114 -28.5 -221.5t-88 -202t-143.5 -164.5t-203.5 -111t-259.5 -41t-259.5 41t-203.5 112t-143.5 165.5t-88 202.5t-28.5 223zM209 717 q0 -98 24 -190.5t75 -174t122.5 -142.5t172.5 -96.5t220 -35.5t221 35.5t174 96.5t122.5 142.5t75 174t24.5 190.5q0 127 -39.5 240t-114 202.5t-194 142t-269.5 52.5t-269 -51.5t-193 -140.5t-113 -202.5t-39 -242.5zM782 1606l219 344h134l-254 -344h-99z" />
<glyph unicode="&#xd4;" horiz-adv-x="1646" d="M100 719q0 117 28.5 224.5t87.5 201t143.5 163t203.5 109t260 39.5q175 0 315.5 -61t228 -165t133.5 -235.5t46 -279.5q0 -114 -28.5 -221.5t-88 -202t-143.5 -164.5t-203.5 -111t-259.5 -41t-259.5 41t-203.5 112t-143.5 165.5t-88 202.5t-28.5 223zM209 717 q0 -98 24 -190.5t75 -174t122.5 -142.5t172.5 -96.5t220 -35.5t221 35.5t174 96.5t122.5 142.5t75 174t24.5 190.5q0 127 -39.5 240t-114 202.5t-194 142t-269.5 52.5t-269 -51.5t-193 -140.5t-113 -202.5t-39 -242.5zM532 1606l250 344h82l250 -344h-129l-162 241 l-161 -241h-130z" />
<glyph unicode="&#xd5;" horiz-adv-x="1646" d="M100 719q0 117 28.5 224.5t87.5 201t143.5 163t203.5 109t260 39.5q175 0 315.5 -61t228 -165t133.5 -235.5t46 -279.5q0 -114 -28.5 -221.5t-88 -202t-143.5 -164.5t-203.5 -111t-259.5 -41t-259.5 41t-203.5 112t-143.5 165.5t-88 202.5t-28.5 223zM209 717 q0 -98 24 -190.5t75 -174t122.5 -142.5t172.5 -96.5t220 -35.5t221 35.5t174 96.5t122.5 142.5t75 174t24.5 190.5q0 127 -39.5 240t-114 202.5t-194 142t-269.5 52.5t-269 -51.5t-193 -140.5t-113 -202.5t-39 -242.5zM528 1700q0 71 42 116.5t116 45.5q54 0 153 -34 t122 -34q55 0 69 66l90 -23q-6 -66 -50 -103.5t-103 -37.5q-54 0 -150.5 33.5t-126.5 33.5q-72 0 -72 -80z" />
<glyph unicode="&#xd6;" horiz-adv-x="1646" d="M100 719q0 117 28.5 224.5t87.5 201t143.5 163t203.5 109t260 39.5q175 0 315.5 -61t228 -165t133.5 -235.5t46 -279.5q0 -114 -28.5 -221.5t-88 -202t-143.5 -164.5t-203.5 -111t-259.5 -41t-259.5 41t-203.5 112t-143.5 165.5t-88 202.5t-28.5 223zM209 717 q0 -98 24 -190.5t75 -174t122.5 -142.5t172.5 -96.5t220 -35.5t221 35.5t174 96.5t122.5 142.5t75 174t24.5 190.5q0 127 -39.5 240t-114 202.5t-194 142t-269.5 52.5t-269 -51.5t-193 -140.5t-113 -202.5t-39 -242.5zM545 1772q0 38 24.5 58.5t57.5 20.5q32 0 56 -21 t24 -58t-24 -58.5t-56 -21.5q-33 0 -57.5 21t-24.5 59zM940 1772q0 38 24.5 58.5t57.5 20.5q32 0 56 -21t24 -58t-24 -58.5t-56 -21.5q-33 0 -57.5 21t-24.5 59z" />
<glyph unicode="&#xd7;" horiz-adv-x="1198" d="M184 348l346 346l-346 344l70 70l346 -344l344 344l70 -70l-344 -344l344 -346l-70 -69l-344 346l-346 -346z" />
<glyph unicode="&#xd8;" horiz-adv-x="1646" d="M100 719q0 117 28.5 224.5t87.5 201t143.5 163t203.5 109t260 39.5q195 0 351 -78l90 160h110l-119 -209q143 -100 217 -262t74 -352q0 -114 -28.5 -221.5t-88 -202t-143.5 -164.5t-203.5 -111t-259.5 -41q-167 0 -305 58l-123 -215h-108l147 258q-162 98 -248 270.5 t-86 372.5zM209 717q0 -169 71 -315.5t205 -231.5l637 1118q-135 66 -299 66q-150 0 -269 -51.5t-193 -140.5t-113 -202.5t-39 -242.5zM571 125q112 -47 252 -47q119 0 221 35.5t174 96.5t122.5 142.5t75 174t24.5 190.5q0 158 -60 295.5t-176 224.5z" />
<glyph unicode="&#xd9;" horiz-adv-x="1417" d="M160 502v932h110v-932q0 -89 24.5 -161.5t66 -120.5t98.5 -80.5t119.5 -47t130.5 -14.5q86 0 161.5 24t139 72.5t100.5 132.5t37 195v932h110v-932q0 -109 -31 -198.5t-83 -149.5t-123 -101t-149 -59.5t-162 -18.5t-162 18.5t-149 59.5t-123.5 101t-83.5 149.5t-31 198.5 zM379 1950h133l219 -344h-98z" />
<glyph unicode="&#xda;" horiz-adv-x="1417" d="M160 502v932h110v-932q0 -89 24.5 -161.5t66 -120.5t98.5 -80.5t119.5 -47t130.5 -14.5q86 0 161.5 24t139 72.5t100.5 132.5t37 195v932h110v-932q0 -109 -31 -198.5t-83 -149.5t-123 -101t-149 -59.5t-162 -18.5t-162 18.5t-149 59.5t-123.5 101t-83.5 149.5t-31 198.5 zM668 1606l219 344h133l-254 -344h-98z" />
<glyph unicode="&#xdb;" horiz-adv-x="1417" d="M160 502v932h110v-932q0 -89 24.5 -161.5t66 -120.5t98.5 -80.5t119.5 -47t130.5 -14.5q86 0 161.5 24t139 72.5t100.5 132.5t37 195v932h110v-932q0 -109 -31 -198.5t-83 -149.5t-123 -101t-149 -59.5t-162 -18.5t-162 18.5t-149 59.5t-123.5 101t-83.5 149.5t-31 198.5 zM418 1606l250 344h82l249 -344h-129l-161 241l-162 -241h-129z" />
<glyph unicode="&#xdc;" horiz-adv-x="1417" d="M160 502v932h110v-932q0 -89 24.5 -161.5t66 -120.5t98.5 -80.5t119.5 -47t130.5 -14.5q86 0 161.5 24t139 72.5t100.5 132.5t37 195v932h110v-932q0 -109 -31 -198.5t-83 -149.5t-123 -101t-149 -59.5t-162 -18.5t-162 18.5t-149 59.5t-123.5 101t-83.5 149.5t-31 198.5 zM430 1772q0 38 24.5 58.5t57.5 20.5q32 0 56 -21t24 -58t-24 -58.5t-56 -21.5q-33 0 -57.5 21t-24.5 59zM825 1772q0 38 24.5 58.5t57.5 20.5q32 0 56 -21t24 -58t-24 -58.5t-56 -21.5q-33 0 -57.5 21t-24.5 59z" />
<glyph unicode="&#xdd;" horiz-adv-x="1308" d="M39 1434h129l485 -734l488 734h129l-561 -840v-594h-111v594zM614 1606l220 344h133l-254 -344h-99z" />
<glyph unicode="&#xde;" horiz-adv-x="1339" d="M137 0v1432h103v-250h526q113 0 203.5 -40t147 -106.5t86.5 -149.5t30 -173q0 -71 -18.5 -138.5t-57 -127.5t-92.5 -105t-131.5 -71.5t-167.5 -26.5h-524v-244h-105zM242 344h524q70 0 129 20.5t101 56t71 83t43 100.5t14 109q0 70 -22.5 134.5t-65.5 116.5t-113 83.5 t-157 31.5h-524v-735z" />
<glyph unicode="&#xdf;" horiz-adv-x="1196" d="M131 0v1010q0 220 121 334t313 114q180 0 292 -90.5t112 -253.5q0 -56 -22.5 -98t-59 -67t-80 -44.5t-87 -35t-80 -33.5t-59 -46.5t-22.5 -66.5q0 -45 24 -79t63 -54.5t88.5 -40.5t102 -35t102 -38t88.5 -50.5t63 -72.5t24 -103q0 -134 -93.5 -204.5t-236.5 -70.5 q-132 0 -236 54.5t-171 156.5l74 66q129 -186 335 -186q117 0 173.5 44t56.5 138q0 48 -30.5 82.5t-79.5 55t-107.5 37.5t-117.5 39t-108 52t-79.5 82.5t-30.5 124.5q0 53 22 93t57 64.5t77.5 44.5t85.5 37t78 36t57 49t22 69q0 120 -83 181t-214 61q-163 0 -248.5 -93 t-85.5 -245v-1018h-100z" />
<glyph unicode="&#xe0;" d="M92 506q0 151 69.5 272.5t186.5 188.5t258 67q126 0 239 -52.5t175 -145.5v174h100v-1010h-100v170q-155 -195 -414 -195q-105 0 -199.5 40t-164 109.5t-110 169t-40.5 212.5zM193 506q0 -188 119.5 -310t293.5 -122q102 0 184.5 37t133 99t77.5 138t27 158q0 81 -27 157 t-77.5 138t-133 99.5t-184.5 37.5q-174 0 -293.5 -122t-119.5 -310zM338 1526h133l219 -344h-98z" />
<glyph unicode="&#xe1;" d="M92 506q0 151 69.5 272.5t186.5 188.5t258 67q126 0 239 -52.5t175 -145.5v174h100v-1010h-100v170q-155 -195 -414 -195q-105 0 -199.5 40t-164 109.5t-110 169t-40.5 212.5zM193 506q0 -188 119.5 -310t293.5 -122q102 0 184.5 37t133 99t77.5 138t27 158q0 81 -27 157 t-77.5 138t-133 99.5t-184.5 37.5q-174 0 -293.5 -122t-119.5 -310zM627 1182l219 344h133l-254 -344h-98z" />
<glyph unicode="&#xe2;" d="M92 506q0 151 69.5 272.5t186.5 188.5t258 67q126 0 239 -52.5t175 -145.5v174h100v-1010h-100v170q-155 -195 -414 -195q-105 0 -199.5 40t-164 109.5t-110 169t-40.5 212.5zM193 506q0 -188 119.5 -310t293.5 -122q102 0 184.5 37t133 99t77.5 138t27 158q0 81 -27 157 t-77.5 138t-133 99.5t-184.5 37.5q-174 0 -293.5 -122t-119.5 -310zM377 1182l250 344h82l249 -344h-129l-161 241l-162 -241h-129z" />
<glyph unicode="&#xe3;" d="M92 506q0 151 69.5 272.5t186.5 188.5t258 67q126 0 239 -52.5t175 -145.5v174h100v-1010h-100v170q-155 -195 -414 -195q-105 0 -199.5 40t-164 109.5t-110 169t-40.5 212.5zM193 506q0 -188 119.5 -310t293.5 -122q102 0 184.5 37t133 99t77.5 138t27 158q0 81 -27 157 t-77.5 138t-133 99.5t-184.5 37.5q-174 0 -293.5 -122t-119.5 -310zM373 1276q0 71 41.5 116.5t115.5 45.5q54 0 153 -34t122 -34q55 0 69 66l91 -23q-6 -66 -50.5 -103.5t-103.5 -37.5q-54 0 -150 33.5t-126 33.5q-72 0 -72 -79z" />
<glyph unicode="&#xe4;" d="M92 506q0 151 69.5 272.5t186.5 188.5t258 67q126 0 239 -52.5t175 -145.5v174h100v-1010h-100v170q-155 -195 -414 -195q-105 0 -199.5 40t-164 109.5t-110 169t-40.5 212.5zM193 506q0 -188 119.5 -310t293.5 -122q102 0 184.5 37t133 99t77.5 138t27 158q0 81 -27 157 t-77.5 138t-133 99.5t-184.5 37.5q-174 0 -293.5 -122t-119.5 -310zM389 1348q0 38 24.5 58.5t57.5 20.5q32 0 56 -21t24 -58t-24 -58.5t-56 -21.5q-33 0 -57.5 21t-24.5 59zM784 1348q0 38 24.5 58.5t57.5 20.5q32 0 56 -21t24 -58t-24 -58.5t-56 -21.5q-33 0 -57.5 21 t-24.5 59z" />
<glyph unicode="&#xe5;" d="M92 506q0 151 69.5 272.5t186.5 188.5t258 67q126 0 239 -52.5t175 -145.5v174h100v-1010h-100v170q-155 -195 -414 -195q-105 0 -199.5 40t-164 109.5t-110 169t-40.5 212.5zM193 506q0 -188 119.5 -310t293.5 -122q102 0 184.5 37t133 99t77.5 138t27 158q0 81 -27 157 t-77.5 138t-133 99.5t-184.5 37.5q-174 0 -293.5 -122t-119.5 -310zM492 1356q0 76 51.5 119t124.5 43t124.5 -43t51.5 -119t-51.5 -119t-124.5 -43t-124.5 43t-51.5 119zM567 1356q0 -39 27 -65.5t74 -26.5t73.5 26.5t26.5 65.5t-26.5 65.5t-73.5 26.5t-74 -26.5t-27 -65.5 z" />
<glyph unicode="&#xe6;" horiz-adv-x="2084" d="M92 506q0 151 69.5 272.5t186.5 188.5t258 67q126 0 239 -52.5t175 -145.5v174h100v-168q67 91 167.5 141.5t221.5 50.5q87 0 163.5 -21.5t140 -67.5t106.5 -112.5t62 -162.5t8 -211h-869q21 -182 135 -283.5t275 -101.5q105 0 207 40.5t157 112.5l64 -63 q-71 -93 -185.5 -141t-242.5 -48q-125 0 -232.5 52t-177.5 147v-174h-100v170q-155 -195 -414 -195q-105 0 -199.5 40t-164 109.5t-110 169t-40.5 212.5zM193 506q0 -188 119.5 -310t293.5 -122q102 0 184.5 37t133 99t77.5 138t27 158q0 81 -27 157t-77.5 138t-133 99.5 t-184.5 37.5q-174 0 -293.5 -122t-119.5 -310zM1120 547h778q0 187 -103 291t-286 104q-159 0 -263.5 -102t-125.5 -293z" />
<glyph unicode="&#xe7;" horiz-adv-x="1062" d="M92 506q0 156 69 277.5t187 186t264 64.5q100 0 192.5 -30t156.5 -84l-66 -76q-44 41 -121 68.5t-162 27.5q-116 0 -211 -51t-153 -151t-58 -232q0 -198 122 -317t300 -119q83 0 161.5 32t139.5 93l68 -68q-75 -75 -171 -113.5t-198 -38.5h-4l-33 -104q89 0 140 -50 t51 -118q0 -74 -57.5 -128t-161.5 -54q-59 0 -113.5 21t-83.5 48l47 74q67 -67 150 -67q62 0 97.5 30t35.5 70t-33.5 69t-93.5 29q-37 0 -70 -8l-12 10l57 185q-189 28 -312.5 171t-123.5 353z" />
<glyph unicode="&#xe8;" horiz-adv-x="1161" d="M92 506q0 228 140.5 378t353.5 150q109 0 200.5 -35t160 -103.5t100.5 -181t18 -255.5h-870q15 -174 132.5 -279.5t278.5 -105.5q105 0 207.5 40.5t157.5 112.5l63 -63q-71 -93 -185.5 -141t-242.5 -48q-106 0 -200.5 38t-163.5 106t-109.5 168.5t-40.5 218.5zM195 547 h780q0 187 -103 291t-286 104q-159 0 -266.5 -106t-124.5 -289zM272 1526h134l219 -344h-99z" />
<glyph unicode="&#xe9;" horiz-adv-x="1161" d="M92 506q0 228 140.5 378t353.5 150q109 0 200.5 -35t160 -103.5t100.5 -181t18 -255.5h-870q15 -174 132.5 -279.5t278.5 -105.5q105 0 207.5 40.5t157.5 112.5l63 -63q-71 -93 -185.5 -141t-242.5 -48q-106 0 -200.5 38t-163.5 106t-109.5 168.5t-40.5 218.5zM195 547 h780q0 187 -103 291t-286 104q-159 0 -266.5 -106t-124.5 -289zM561 1182l219 344h133l-254 -344h-98z" />
<glyph unicode="&#xea;" horiz-adv-x="1161" d="M92 506q0 228 140.5 378t353.5 150q109 0 200.5 -35t160 -103.5t100.5 -181t18 -255.5h-870q15 -174 132.5 -279.5t278.5 -105.5q105 0 207.5 40.5t157.5 112.5l63 -63q-71 -93 -185.5 -141t-242.5 -48q-106 0 -200.5 38t-163.5 106t-109.5 168.5t-40.5 218.5zM195 547 h780q0 187 -103 291t-286 104q-159 0 -266.5 -106t-124.5 -289zM311 1182l250 344h82l250 -344h-129l-162 241l-162 -241h-129z" />
<glyph unicode="&#xeb;" horiz-adv-x="1161" d="M92 506q0 228 140.5 378t353.5 150q109 0 200.5 -35t160 -103.5t100.5 -181t18 -255.5h-870q15 -174 132.5 -279.5t278.5 -105.5q105 0 207.5 40.5t157.5 112.5l63 -63q-71 -93 -185.5 -141t-242.5 -48q-106 0 -200.5 38t-163.5 106t-109.5 168.5t-40.5 218.5zM195 547 h780q0 187 -103 291t-286 104q-159 0 -266.5 -106t-124.5 -289zM324 1348q0 38 24.5 58.5t57.5 20.5q32 0 55.5 -21t23.5 -58q0 -38 -23.5 -59t-55.5 -21q-33 0 -57.5 21t-24.5 59zM719 1348q0 38 24.5 58.5t57.5 20.5q32 0 56 -21t24 -58t-24 -58.5t-56 -21.5 q-33 0 -57.5 21t-24.5 59z" />
<glyph unicode="&#xec;" horiz-adv-x="362" d="M-147 1526h133l219 -344h-99zM131 0v1010h100v-1010h-100z" />
<glyph unicode="&#xed;" horiz-adv-x="362" d="M131 0v1010h100v-1010h-100zM141 1182l219 344h134l-254 -344h-99z" />
<glyph unicode="&#xee;" horiz-adv-x="362" d="M-109 1182l250 344h82l250 -344h-129l-162 241l-162 -241h-129zM131 0v1010h100v-1010h-100z" />
<glyph unicode="&#xef;" horiz-adv-x="362" d="M-96 1348q0 38 24.5 58.5t57.5 20.5q32 0 56 -21t24 -58t-24 -58.5t-56 -21.5q-33 0 -57.5 21t-24.5 59zM131 0v1010h100v-1010h-100zM299 1348q0 38 24.5 58.5t57.5 20.5q32 0 56 -21t24 -58t-24 -58.5t-56 -21.5q-33 0 -57.5 21t-24.5 59z" />
<glyph unicode="&#xf0;" horiz-adv-x="1224" d="M92 489q0 77 20.5 150.5t63.5 139t103.5 114.5t146 77.5t186.5 28.5q213 0 379 -159q-30 102 -110.5 200t-190.5 172l-86 -122l-65 45l84 120q-113 63 -213 88l28 87q139 -46 238 -101l96 137l66 -45l-95 -133q390 -260 390 -780q0 -236 -142 -383.5t-379 -147.5 q-101 0 -186.5 28.5t-146 78t-103.5 115t-63.5 139t-20.5 151.5zM195 489q0 -80 26.5 -153.5t76.5 -133t131.5 -95t182.5 -35.5t182.5 35.5t132 95t77 133t26.5 153.5t-26.5 153.5t-77 133.5t-132 95.5t-182.5 35.5t-182.5 -35.5t-131.5 -95.5t-76.5 -133.5t-26.5 -153.5z " />
<glyph unicode="&#xf1;" horiz-adv-x="1177" d="M131 0v1010h100v-179q56 100 151.5 150.5t207.5 52.5q205 0 331 -121t126 -329v-584h-101v582q0 170 -97 263t-263 91q-155 -1 -255 -108t-100 -265v-563h-100zM295 1276q0 71 42 116.5t116 45.5q54 0 152.5 -34t121.5 -34q56 0 70 66l90 -23q-6 -66 -50.5 -103.5 t-103.5 -37.5q-54 0 -150 33.5t-126 33.5q-72 0 -72 -79z" />
<glyph unicode="&#xf2;" horiz-adv-x="1212" d="M92 504q0 157 69 279t185.5 186.5t259.5 64.5t259.5 -64.5t185.5 -186.5t69 -279q0 -118 -40.5 -218t-109.5 -167.5t-163.5 -105.5t-200.5 -38t-200.5 38t-163.5 105.5t-109.5 167.5t-40.5 218zM190 504q0 -193 120.5 -315.5t295.5 -122.5t295.5 122.5t120.5 315.5 t-120.5 316.5t-295.5 123.5t-295.5 -123.5t-120.5 -316.5zM276 1526h134l219 -344h-99z" />
<glyph unicode="&#xf3;" horiz-adv-x="1212" d="M92 504q0 157 69 279t185.5 186.5t259.5 64.5t259.5 -64.5t185.5 -186.5t69 -279q0 -118 -40.5 -218t-109.5 -167.5t-163.5 -105.5t-200.5 -38t-200.5 38t-163.5 105.5t-109.5 167.5t-40.5 218zM190 504q0 -193 120.5 -315.5t295.5 -122.5t295.5 122.5t120.5 315.5 t-120.5 316.5t-295.5 123.5t-295.5 -123.5t-120.5 -316.5zM565 1182l219 344h134l-254 -344h-99z" />
<glyph unicode="&#xf4;" horiz-adv-x="1212" d="M92 504q0 157 69 279t185.5 186.5t259.5 64.5t259.5 -64.5t185.5 -186.5t69 -279q0 -118 -40.5 -218t-109.5 -167.5t-163.5 -105.5t-200.5 -38t-200.5 38t-163.5 105.5t-109.5 167.5t-40.5 218zM190 504q0 -193 120.5 -315.5t295.5 -122.5t295.5 122.5t120.5 315.5 t-120.5 316.5t-295.5 123.5t-295.5 -123.5t-120.5 -316.5zM315 1182l250 344h82l250 -344h-129l-162 241l-162 -241h-129z" />
<glyph unicode="&#xf5;" horiz-adv-x="1212" d="M92 504q0 157 69 279t185.5 186.5t259.5 64.5t259.5 -64.5t185.5 -186.5t69 -279q0 -118 -40.5 -218t-109.5 -167.5t-163.5 -105.5t-200.5 -38t-200.5 38t-163.5 105.5t-109.5 167.5t-40.5 218zM190 504q0 -193 120.5 -315.5t295.5 -122.5t295.5 122.5t120.5 315.5 t-120.5 316.5t-295.5 123.5t-295.5 -123.5t-120.5 -316.5zM311 1276q0 71 42 116.5t116 45.5q54 0 152.5 -34t121.5 -34q56 0 70 66l90 -23q-6 -66 -50 -103.5t-103 -37.5q-54 0 -150.5 33.5t-126.5 33.5q-72 0 -72 -79z" />
<glyph unicode="&#xf6;" horiz-adv-x="1212" d="M92 504q0 157 69 279t185.5 186.5t259.5 64.5t259.5 -64.5t185.5 -186.5t69 -279q0 -118 -40.5 -218t-109.5 -167.5t-163.5 -105.5t-200.5 -38t-200.5 38t-163.5 105.5t-109.5 167.5t-40.5 218zM190 504q0 -193 120.5 -315.5t295.5 -122.5t295.5 122.5t120.5 315.5 t-120.5 316.5t-295.5 123.5t-295.5 -123.5t-120.5 -316.5zM328 1348q0 38 24.5 58.5t57.5 20.5q32 0 55.5 -21t23.5 -58q0 -38 -23.5 -59t-55.5 -21q-33 0 -57.5 21t-24.5 59zM723 1348q0 38 24.5 58.5t57.5 20.5q32 0 56 -21t24 -58t-24 -58.5t-56 -21.5q-33 0 -57.5 21 t-24.5 59z" />
<glyph unicode="&#xf7;" horiz-adv-x="1198" d="M123 643v100h952v-100h-952zM518 367q0 37 24.5 58t57.5 21q32 0 56 -21t24 -58t-24 -58.5t-56 -21.5q-33 0 -57.5 21t-24.5 59zM518 1020q0 38 24.5 59t57.5 21q32 0 56 -21.5t24 -58.5t-24 -58.5t-56 -21.5q-33 0 -57.5 21t-24.5 59z" />
<glyph unicode="&#xf8;" horiz-adv-x="1212" d="M92 504q0 157 69 279t185.5 186.5t259.5 64.5q86 0 172 -26l82 166h111l-101 -207q116 -66 183 -186.5t67 -276.5q0 -118 -40.5 -218t-109.5 -167.5t-163.5 -105.5t-200.5 -38q-112 0 -203 39l-92 -190h-108l114 235q-105 68 -165 182.5t-60 262.5zM190 504 q0 -114 45 -207.5t123 -151.5l379 779q-68 20 -131 20q-175 0 -295.5 -123.5t-120.5 -316.5zM444 96q74 -30 162 -30q175 0 295.5 122.5t120.5 315.5q0 124 -52.5 222t-142.5 155z" />
<glyph unicode="&#xf9;" horiz-adv-x="1155" d="M131 422v588h100v-586q0 -176 90.5 -267t256.5 -91t256 91t90 267v586h100v-588q0 -211 -117 -329t-329 -118t-329.5 118t-117.5 329zM248 1526h133l219 -344h-98z" />
<glyph unicode="&#xfa;" horiz-adv-x="1155" d="M131 422v588h100v-586q0 -176 90.5 -267t256.5 -91t256 91t90 267v586h100v-588q0 -211 -117 -329t-329 -118t-329.5 118t-117.5 329zM537 1182l219 344h133l-254 -344h-98z" />
<glyph unicode="&#xfb;" horiz-adv-x="1155" d="M131 422v588h100v-586q0 -176 90.5 -267t256.5 -91t256 91t90 267v586h100v-588q0 -211 -117 -329t-329 -118t-329.5 118t-117.5 329zM287 1182l250 344h81l250 -344h-129l-161 241l-162 -241h-129z" />
<glyph unicode="&#xfc;" horiz-adv-x="1155" d="M131 422v588h100v-586q0 -176 90.5 -267t256.5 -91t256 91t90 267v586h100v-588q0 -211 -117 -329t-329 -118t-329.5 118t-117.5 329zM299 1348q0 38 24.5 58.5t57.5 20.5q32 0 56 -21t24 -58t-24 -58.5t-56 -21.5q-33 0 -57.5 21t-24.5 59zM694 1348q0 38 24.5 58.5 t57.5 20.5q32 0 56 -21t24 -58t-24 -58.5t-56 -21.5q-33 0 -57.5 21t-24.5 59z" />
<glyph unicode="&#xfd;" horiz-adv-x="1177" d="M131 467v543h100v-541q0 -180 78.5 -269t241.5 -89q159 0 277 110.5t118 265.5v523h101v-1016q0 -197 -126 -300.5t-335 -103.5q-143 0 -260.5 56.5t-184.5 136.5l68 76q50 -68 154.5 -123t222.5 -55q104 0 183.5 32.5t128 104.5t48.5 176v242q-56 -99 -171 -157.5 t-228 -58.5q-201 0 -308.5 117.5t-107.5 329.5zM549 1182l219 344h133l-254 -344h-98z" />
<glyph unicode="&#xfe;" horiz-adv-x="1273" d="M119 -422v1854h94v-660q61 117 178.5 185.5t263.5 68.5q214 -8 353 -146t139 -374q0 -124 -40 -224.5t-110 -165.5t-163 -99.5t-201 -34.5q-133 0 -244 64t-174 187v-655h-96zM223 504q0 -185 117.5 -305.5t292.5 -120.5q180 0 297 111.5t117 316.5t-116.5 314.5 t-297.5 109.5q-177 0 -293.5 -120t-116.5 -306z" />
<glyph unicode="&#xff;" horiz-adv-x="1177" d="M131 467v543h100v-541q0 -180 78.5 -269t241.5 -89q159 0 277 110.5t118 265.5v523h101v-1016q0 -197 -126 -300.5t-335 -103.5q-143 0 -260.5 56.5t-184.5 136.5l68 76q50 -68 154.5 -123t222.5 -55q104 0 183.5 32.5t128 104.5t48.5 176v242q-56 -99 -171 -157.5 t-228 -58.5q-201 0 -308.5 117.5t-107.5 329.5zM311 1348q0 38 24.5 58.5t57.5 20.5q32 0 56 -21t24 -58t-24 -58.5t-56 -21.5q-33 0 -57.5 21t-24.5 59zM707 1348q0 38 24 58.5t57 20.5q32 0 56 -21t24 -58t-24 -58.5t-56 -21.5q-33 0 -57 21t-24 59z" />
<glyph unicode="&#x152;" horiz-adv-x="1998" d="M109 719q0 117 28.5 223.5t87 198.5t143 160t203.5 106.5t260 38.5q79 0 146 -12h831v-99h-741v-563h696v-100h-696v-574h772v-98h-866q-75 -10 -142 -10q-140 0 -259 39.5t-203.5 108t-143.5 161t-87.5 199t-28.5 221.5zM217 717q1 -124 40.5 -236.5t113.5 -202 t193 -143t267 -53.5q75 0 142 12v1254q-67 12 -142 12q-120 0 -221.5 -34.5t-173.5 -94.5t-122 -141.5t-74 -176t-23 -196.5z" />
<glyph unicode="&#x153;" horiz-adv-x="1916" d="M92 504q0 157 69 279t185.5 186.5t259.5 64.5q110 0 208 -40.5t167 -114.5q67 73 160 114t200 41q87 0 163.5 -21.5t140 -67.5t106.5 -112.5t62 -162.5t8 -211h-703q-9 -136 -71 -242q57 -68 139.5 -105.5t175.5 -37.5q105 0 207 40.5t157 112.5l64 -63 q-71 -93 -185.5 -141t-242.5 -48q-111 0 -209 42t-168 118q-71 -77 -169 -118.5t-210 -41.5q-106 0 -200.5 38t-163.5 105.5t-109.5 167.5t-40.5 218zM190 504q0 -193 120.5 -315.5t295.5 -122.5t295.5 122.5t120.5 315.5t-120.5 316.5t-295.5 123.5t-295.5 -123.5 t-120.5 -316.5zM1042 799q67 -113 76 -252h613q0 187 -103 291t-287 104q-187 0 -299 -143z" />
<glyph unicode="&#x178;" horiz-adv-x="1308" d="M39 1434h129l485 -734l488 734h129l-561 -840v-594h-111v594zM377 1772q0 38 24.5 58.5t57.5 20.5q32 0 56 -21t24 -58t-24 -58.5t-56 -21.5q-33 0 -57.5 21t-24.5 59zM772 1772q0 38 24.5 58.5t57.5 20.5q32 0 56 -21t24 -58t-24 -58.5t-56 -21.5q-33 0 -57.5 21 t-24.5 59z" />
<glyph unicode="&#x2c6;" horiz-adv-x="1024" d="M221 1182l250 344h82l250 -344h-129l-162 241l-162 -241h-129z" />
<glyph unicode="&#x2dc;" horiz-adv-x="1024" d="M217 1276q0 71 42 116.5t116 45.5q54 0 152.5 -34t121.5 -34q56 0 70 66l90 -23q-6 -66 -50.5 -103.5t-103.5 -37.5q-54 0 -150 33.5t-126 33.5q-72 0 -72 -79z" />
<glyph unicode="&#x2000;" horiz-adv-x="975" />
<glyph unicode="&#x2001;" horiz-adv-x="1950" />
<glyph unicode="&#x2002;" horiz-adv-x="975" />
<glyph unicode="&#x2003;" horiz-adv-x="1950" />
<glyph unicode="&#x2004;" horiz-adv-x="650" />
<glyph unicode="&#x2005;" horiz-adv-x="487" />
<glyph unicode="&#x2006;" horiz-adv-x="325" />
<glyph unicode="&#x2007;" horiz-adv-x="325" />
<glyph unicode="&#x2008;" horiz-adv-x="243" />
<glyph unicode="&#x2009;" horiz-adv-x="390" />
<glyph unicode="&#x200a;" horiz-adv-x="108" />
<glyph unicode="&#x2010;" horiz-adv-x="921" d="M102 637v100h717v-100h-717z" />
<glyph unicode="&#x2011;" horiz-adv-x="921" d="M102 637v100h717v-100h-717z" />
<glyph unicode="&#x2012;" horiz-adv-x="921" d="M102 637v100h717v-100h-717z" />
<glyph unicode="&#x2013;" horiz-adv-x="1036" d="M61 639v96h914v-96h-914z" />
<glyph unicode="&#x2014;" horiz-adv-x="1378" d="M61 639v96h1256v-96h-1256z" />
<glyph unicode="&#x2018;" horiz-adv-x="407" d="M102 932l134 502h90l-107 -502h-117z" />
<glyph unicode="&#x2019;" horiz-adv-x="407" d="M82 932l106 502h117l-133 -502h-90z" />
<glyph unicode="&#x201a;" horiz-adv-x="407" d="M82 -283l106 502h117l-133 -502h-90z" />
<glyph unicode="&#x201c;" horiz-adv-x="653" d="M102 932l134 502h90l-107 -502h-117zM348 932l133 502h90l-106 -502h-117z" />
<glyph unicode="&#x201d;" horiz-adv-x="653" d="M82 932l106 502h117l-133 -502h-90zM328 932l106 502h117l-133 -502h-90z" />
<glyph unicode="&#x201e;" horiz-adv-x="653" d="M82 -283l106 502h117l-133 -502h-90zM328 -283l106 502h117l-133 -502h-90z" />
<glyph unicode="&#x2022;" horiz-adv-x="532" d="M102 612q0 72 47 117t119 45q69 0 115.5 -45t46.5 -117t-46.5 -116.5t-115.5 -44.5q-72 0 -119 44.5t-47 116.5z" />
<glyph unicode="&#x2026;" horiz-adv-x="1185" d="M61 55q0 38 24.5 59t57.5 21q32 0 56 -21.5t24 -58.5t-24 -58.5t-56 -21.5q-33 0 -57.5 21t-24.5 59zM471 55q0 38 24.5 59t57.5 21q32 0 56 -21.5t24 -58.5t-24 -58.5t-56 -21.5q-33 0 -57.5 21t-24.5 59zM881 55q0 38 24.5 59t57.5 21q32 0 55.5 -21t23.5 -59 t-23.5 -59t-55.5 -21q-33 0 -57.5 21t-24.5 59z" />
<glyph unicode="&#x202f;" horiz-adv-x="390" />
<glyph unicode="&#x2039;" horiz-adv-x="593" d="M61 588l349 497l82 -49l-318 -448l318 -449l-82 -49z" />
<glyph unicode="&#x203a;" horiz-adv-x="593" d="M102 139l318 449l-318 448l82 49l348 -497l-348 -498z" />
<glyph unicode="&#x205f;" horiz-adv-x="487" />
<glyph unicode="&#x20ac;" horiz-adv-x="1267" d="M20 496v94h160q-10 68 -10 127q0 65 8 117h-158v94h177q29 111 87 205t142.5 168t204 115.5t260.5 41.5q116 0 219 -28l-33 -93q-100 27 -186 27q-116 0 -215 -34t-171 -94.5t-121.5 -138t-76.5 -169.5h617l-27 -94h-610q-8 -49 -8 -113q0 -67 12 -131h536l-20 -94h-494 q59 -185 207.5 -301.5t370.5 -116.5q116 0 225 41l29 -99q-127 -45 -254 -45q-139 0 -257.5 41t-203.5 113t-143 165t-88 202h-179z" />
<glyph unicode="&#x2122;" horiz-adv-x="1302" d="M82 1343v91h493v-91h-200v-462h-92v462h-201zM647 881v553h86l201 -318l201 318h86v-553h-93v381l-161 -258h-66l-162 258v-381h-92z" />
<glyph unicode="&#x25fc;" horiz-adv-x="1013" d="M0 0v1014h1014v-1014h-1014z" />
</font>
</defs>
</svg>
